<?xml version="1.0" encoding="UTF-8"?>
<!-- Created with Inkscape (http://www.inkscape.org/) -->
<svg width="1600" height="450" version="1.1" viewBox="0 0 423.33 119.06" xmlns="http://www.w3.org/2000/svg" xmlns:cc="http://creativecommons.org/ns#" xmlns:dc="http://purl.org/dc/elements/1.1/" xmlns:rdf="http://www.w3.org/1999/02/22-rdf-syntax-ns#" xmlns:xlink="http://www.w3.org/1999/xlink">
 <defs>
  <linearGradient id="linearGradient4915">
   <stop stop-color="#554432" offset="0"/>
   <stop stop-color="#816545" offset="1"/>
  </linearGradient>
  <linearGradient id="linearGradient9985">
   <stop stop-color="#aaa26e" offset="0"/>
   <stop stop-color="#d6d38b" stop-opacity=".91765" offset="1"/>
  </linearGradient>
  <linearGradient id="linearGradient9168">
   <stop stop-color="#d9c53f" offset="0"/>
   <stop stop-color="#f4ef6d" stop-opacity=".91765" offset="1"/>
  </linearGradient>
  <linearGradient id="linearGradient6696">
   <stop stop-color="#aeada9" offset="0"/>
   <stop stop-color="#ededec" offset="1"/>
  </linearGradient>
  <linearGradient id="linearGradient6592">
   <stop stop-color="#94938e" offset="0"/>
   <stop stop-color="#d1d0ce" offset="1"/>
  </linearGradient>
  <clipPath id="clipPath9202">
   <rect x="1939.6" y="172.95" width="465.01" height="261.57" fill="#252b32" style="paint-order:normal"/>
  </clipPath>
  <clipPath id="clipPath8941-6">
   <path d="m2241 269.47a16.829 19.076 30 0 0-24.113 8.1059 16.829 19.076 30 0 0 5.0366 24.935 16.829 19.076 30 0 0 24.113-8.1059 16.829 19.076 30 0 0-5.0366-24.935zm-1.9755 13.765c0 3.908-3.1681 7.076-7.0761 7.076-3.908-3e-5 -7.076-3.1681-7.076-7.0761z" fill="#c4492c" style="paint-order:normal"/>
  </clipPath>
  <clipPath id="clipPath9009-2">
   <circle cx="2248.9" cy="243.45" r="12.712" fill="#e0dd81" style="paint-order:normal"/>
  </clipPath>
  <clipPath id="clipPath9009-2-8">
   <circle cx="2248.9" cy="243.45" r="12.712" fill="#e0dd81" style="paint-order:normal"/>
  </clipPath>
  <clipPath id="clipPath33241-7">
   <rect x="1939.6" y="172.95" width="465.01" height="261.57" fill="#fff"/>
  </clipPath>
  <clipPath id="clipPath2158-2-6">
   <rect x="1939.6" y="172.95" width="465.01" height="261.57" fill="#bc2907" style="paint-order:normal"/>
  </clipPath>
  <linearGradient id="linearGradient20971" x1="4841" x2="4841" y1="693.42" y2="658.7" gradientUnits="userSpaceOnUse" xlink:href="#linearGradient6696"/>
  <linearGradient id="linearGradient20973" x1="1335.8" x2="1335.8" y1="186.04" y2="179.31" gradientTransform="translate(-.044459)" gradientUnits="userSpaceOnUse" xlink:href="#linearGradient6696"/>
  <linearGradient id="linearGradient20975" x1="1331.8" x2="1331.8" y1="186.43" y2="171.5" gradientTransform="matrix(.25445 0 0 .65148 1004.9 64.541)" gradientUnits="userSpaceOnUse" xlink:href="#linearGradient6592"/>
  <linearGradient id="linearGradient20977" x1="1331.8" x2="1331.8" y1="195.55" y2="179.93" gradientTransform="matrix(.25445 0 0 .65148 1004.9 59.592)" gradientUnits="userSpaceOnUse" xlink:href="#linearGradient6592"/>
  <linearGradient id="linearGradient24617" x1="2228.8" x2="2239.1" y1="290.26" y2="283.23" gradientTransform="translate(-4464 -566.46)" gradientUnits="userSpaceOnUse">
   <stop stop-color="#c67e6e" offset="0"/>
   <stop stop-color="#ce9771" offset="1"/>
  </linearGradient>
  <linearGradient id="linearGradient24619" x1="2220.1" x2="2243.9" y1="283.23" y2="283.23" gradientUnits="userSpaceOnUse">
   <stop stop-color="#ce8c69" offset="0"/>
   <stop stop-color="#ba7160" offset="1"/>
  </linearGradient>
  <linearGradient id="linearGradient24843" x1="2243.8" x2="2254.8" y1="251.34" y2="231.69" gradientUnits="userSpaceOnUse" xlink:href="#linearGradient9985"/>
  <linearGradient id="linearGradient24845" x1="2240.5" x2="2242.2" y1="248.46" y2="251.3" gradientUnits="userSpaceOnUse" xlink:href="#linearGradient9985"/>
  <linearGradient id="linearGradient24847" x1="2250.4" x2="2253.4" y1="254.41" y2="257.96" gradientTransform="matrix(1.7647 0 0 1.7647 -1726.2 -200.57)" gradientUnits="userSpaceOnUse" xlink:href="#linearGradient9985"/>
  <linearGradient id="linearGradient24849" x1="2254.6" x2="2259.5" y1="241.62" y2="249.28" gradientTransform="matrix(1.2497 0 0 1.2497 -565.54 -60.778)" gradientUnits="userSpaceOnUse" xlink:href="#linearGradient9985"/>
  <linearGradient id="linearGradient24851" x1="2235.9" x2="2240.4" y1="238.97" y2="243.29" gradientUnits="userSpaceOnUse" xlink:href="#linearGradient9985"/>
  <linearGradient id="linearGradient24853" x1="2245" x2="2250.7" y1="231.9" y2="240.1" gradientTransform="translate(0 -1.1475)" gradientUnits="userSpaceOnUse" xlink:href="#linearGradient9985"/>
  <linearGradient id="linearGradient24855" x1="2240.5" x2="2242.2" y1="248.46" y2="251.3" gradientTransform="translate(15.257 1.3131)" gradientUnits="userSpaceOnUse" xlink:href="#linearGradient9985"/>
  <linearGradient id="linearGradient24857" x1="2235.9" x2="2240.4" y1="238.97" y2="243.29" gradientUnits="userSpaceOnUse" xlink:href="#linearGradient9168"/>
  <linearGradient id="linearGradient25213" x1="2243.8" x2="2254.8" y1="251.34" y2="231.69" gradientUnits="userSpaceOnUse" xlink:href="#linearGradient4915"/>
  <linearGradient id="linearGradient25215" x1="2240.5" x2="2242.2" y1="248.46" y2="251.3" gradientTransform="translate(4.1088 -12.624)" gradientUnits="userSpaceOnUse" xlink:href="#linearGradient4915"/>
  <linearGradient id="linearGradient25217" x1="2250.4" x2="2253.4" y1="254.41" y2="257.96" gradientTransform="matrix(1.7647 0 0 1.7647 -1727.4 -207.53)" gradientUnits="userSpaceOnUse" xlink:href="#linearGradient4915"/>
  <linearGradient id="linearGradient25219" x1="2254.6" x2="2259.5" y1="241.62" y2="249.28" gradientTransform="matrix(1.2497 0 0 1.2497 -579.17 -50.298)" gradientUnits="userSpaceOnUse" xlink:href="#linearGradient4915"/>
  <linearGradient id="linearGradient25221" x1="2235.9" x2="2240.4" y1="238.97" y2="243.29" gradientUnits="userSpaceOnUse" xlink:href="#linearGradient4915"/>
  <linearGradient id="linearGradient25223" x1="2245" x2="2250.7" y1="231.9" y2="240.1" gradientTransform="translate(9.5036 -.24277)" gradientUnits="userSpaceOnUse" xlink:href="#linearGradient4915"/>
  <linearGradient id="linearGradient25225" x1="2240.5" x2="2242.2" y1="248.46" y2="251.3" gradientTransform="translate(15.257 1.3131)" gradientUnits="userSpaceOnUse" xlink:href="#linearGradient4915"/>
 </defs>
 <metadata>
  <rdf:RDF>
   <cc:Work rdf:about="">
    <dc:format>image/svg+xml</dc:format>
    <dc:type rdf:resource="http://purl.org/dc/dcmitype/StillImage"/>
    <dc:title/>
   </cc:Work>
  </rdf:RDF>
 </metadata>
 <g transform="translate(-2284.9 -754.12)">
  <g transform="matrix(1.6667 0 0 1.6667 -1177.6 -545.08)">
   <g transform="matrix(.27311 0 0 .27311 1674.8 732.28)" clip-path="url(#clipPath33241-7)">
    <g transform="matrix(2 0 0 2 -2223.2 -331.76)" clip-path="url(#clipPath9202)">
     <rect x="1939.6" y="172.95" width="465.01" height="261.57" fill="#252b32" style="paint-order:normal"/>
     <g transform="matrix(-1.0908 0 0 1.0908 4475.9 -20.494)" fill-rule="evenodd" stroke-width=".91678">
      <path d="m1925.1 414.11s57.878-126.03 99.799-135.5c41.921-9.466 169.04-77.081 189.05-97.365s37.594-32.725 37.594-32.725l48.412 28.128s-171.74 125.49-205.01 144.42c-33.266 18.932-125.49 106.56-139.29 123.06-13.793 16.498-30.562-30.021-30.562-30.021z" fill="#282f36"/>
      <path d="m1933.2 416.81s68.696-84.653 87.628-97.365c18.932-12.712 224.21-127.39 243.14-154.97 18.932-27.587 16.768-1.6228 16.768-1.6228s-64.64 64.91-124.14 94.119-132.25 79.515-174.45 128.2c-42.192 48.682-63.558 56.255-63.558 56.255z" fill="#2d343c"/>
     </g>
     <g fill="#888a85">
      <circle cx="1985.4" cy="366.69" r=".39688" style="paint-order:normal"/>
      <circle cx="1984.7" cy="252.66" r=".39688" style="paint-order:normal"/>
      <circle cx="2023.7" cy="215.66" r=".39688" style="paint-order:normal"/>
      <circle cx="2120.3" cy="224.32" r=".39688" style="paint-order:normal"/>
      <circle cx="2050.9" cy="193.14" r=".39688" style="paint-order:normal"/>
      <circle cx="2145.6" cy="255.32" r=".39688" style="paint-order:normal"/>
      <circle cx="2065" cy="429.18" r=".39688" style="paint-order:normal"/>
      <circle cx="2227.2" cy="321.69" r=".39688" style="paint-order:normal"/>
      <circle cx="2062.9" cy="434.28" r=".39688" style="paint-order:normal"/>
      <circle cx="2109.7" cy="207.05" r=".39688" style="paint-order:normal"/>
      <circle cx="2296.1" cy="347.59" r=".39688" style="paint-order:normal"/>
      <circle cx="2223.5" cy="297.31" r=".39688" style="paint-order:normal"/>
      <circle cx="2145.5" cy="301.06" r=".39688" style="paint-order:normal"/>
      <circle cx="2365.5" cy="235.93" r=".39688" style="paint-order:normal"/>
      <circle cx="2163.8" cy="267.01" r=".39688" style="paint-order:normal"/>
      <circle cx="2008.4" cy="257.55" r=".39688" style="paint-order:normal"/>
      <circle cx="2197.8" cy="324.39" r=".39688" style="paint-order:normal"/>
      <circle cx="2290.3" cy="226.01" r=".39688" style="paint-order:normal"/>
      <circle cx="1967.7" cy="377.35" r=".39688" style="paint-order:normal"/>
      <circle cx="1972.7" cy="423.04" r=".39688" style="paint-order:normal"/>
      <circle cx="1961.5" cy="364.74" r=".39688" style="paint-order:normal"/>
      <circle cx="2300.4" cy="298.62" r=".39688" style="paint-order:normal"/>
      <circle cx="2020.4" cy="330.1" r=".39688" style="paint-order:normal"/>
      <circle cx="2252.7" cy="282.59" r=".39688" style="paint-order:normal"/>
      <circle cx="2187.2" cy="268.41" r=".39688" style="paint-order:normal"/>
      <circle cx="2130.4" cy="252.03" r=".39688" style="paint-order:normal"/>
      <circle cx="2321.6" cy="229.52" r=".39688" style="paint-order:normal"/>
      <circle cx="2019.3" cy="425.26" r=".39688" style="paint-order:normal"/>
      <circle cx="2088.3" cy="268.49" r=".39688" style="paint-order:normal"/>
      <circle cx="2266.2" cy="399.48" r=".39688" style="paint-order:normal"/>
      <circle cx="2089.1" cy="349.28" r=".39688" style="paint-order:normal"/>
      <circle cx="2167.6" cy="391.52" r=".39688" style="paint-order:normal"/>
      <circle cx="2201.3" cy="415.95" r=".39688" style="paint-order:normal"/>
      <circle cx="2047.4" cy="286.22" r=".39688" style="paint-order:normal"/>
      <circle cx="2254.4" cy="384.53" r=".39688" style="paint-order:normal"/>
      <circle cx="1993.3" cy="227.34" r=".39688" style="paint-order:normal"/>
      <circle cx="2044.7" cy="277.53" r=".39688" style="paint-order:normal"/>
      <circle cx="2309.6" cy="207.52" r=".39688" style="paint-order:normal"/>
      <circle cx="2304.2" cy="341.57" r=".39688" style="paint-order:normal"/>
      <circle cx="2267" cy="199.92" r=".39688" style="paint-order:normal"/>
      <circle cx="2049.7" cy="386.85" r=".39688" style="paint-order:normal"/>
      <circle cx="2324.5" cy="273.35" r=".39688" style="paint-order:normal"/>
      <circle cx="2269.5" cy="412.58" r=".39688" style="paint-order:normal"/>
      <circle cx="2102.3" cy="332.71" r=".39688" style="paint-order:normal"/>
      <circle cx="2219.3" cy="363.29" r=".39688" style="paint-order:normal"/>
      <circle cx="2388.6" cy="349.37" r=".39688" style="paint-order:normal"/>
      <circle cx="2210.8" cy="290.02" r=".39688" style="paint-order:normal"/>
      <circle cx="2318.2" cy="198.36" r=".39688" style="paint-order:normal"/>
      <circle cx="2375.3" cy="355.41" r=".39688" style="paint-order:normal"/>
      <circle cx="2371" cy="250.67" r=".39688" style="paint-order:normal"/>
      <circle cx="2241.4" cy="299.92" r=".39688" style="paint-order:normal"/>
      <circle cx="2207.3" cy="399.4" r=".39688" style="paint-order:normal"/>
      <circle cx="1964.6" cy="371.43" r=".39688" style="paint-order:normal"/>
      <circle cx="1968.9" cy="395.3" r=".39688" style="paint-order:normal"/>
      <circle cx="2264" cy="406.38" r=".39688" style="paint-order:normal"/>
      <circle cx="2389.2" cy="299.27" r=".39688" style="paint-order:normal"/>
      <circle cx="2090" cy="200.5" r=".39688" style="paint-order:normal"/>
      <circle cx="2121.3" cy="314.5" r=".39688" style="paint-order:normal"/>
      <circle cx="2112" cy="387.57" r=".39688" style="paint-order:normal"/>
      <circle cx="2363.1" cy="431.72" r=".39688" style="paint-order:normal"/>
      <circle cx="2238.1" cy="210.82" r=".39688" style="paint-order:normal"/>
      <circle cx="2307.8" cy="255.47" r=".39688" style="paint-order:normal"/>
      <circle cx="2311.7" cy="237.42" r=".39688" style="paint-order:normal"/>
      <circle cx="2378.7" cy="273.37" r=".39688" style="paint-order:normal"/>
      <circle cx="2279.5" cy="217.75" r=".39688" style="paint-order:normal"/>
      <circle cx="2259.2" cy="372.3" r=".39688" style="paint-order:normal"/>
      <circle cx="2149.3" cy="416.94" r=".39688" style="paint-order:normal"/>
      <circle cx="2206.6" cy="271.71" r=".39688" style="paint-order:normal"/>
      <circle cx="2178.5" cy="414.72" r=".39688" style="paint-order:normal"/>
      <circle cx="2311.1" cy="247.3" r=".39688" style="paint-order:normal"/>
      <circle cx="2164.8" cy="342.92" r=".39688" style="paint-order:normal"/>
      <circle cx="1971.2" cy="323.7" r=".39688" style="paint-order:normal"/>
      <circle cx="2041.5" cy="272.8" r=".39688" style="paint-order:normal"/>
      <circle cx="2304.7" cy="405.12" r=".39688" style="paint-order:normal"/>
      <circle cx="1950.4" cy="237.15" r=".39688" style="paint-order:normal"/>
      <circle cx="2129.8" cy="303.49" r=".39688" style="paint-order:normal"/>
      <circle cx="1997.6" cy="350.23" r=".39688" style="paint-order:normal"/>
      <circle cx="1977.2" cy="356.16" r=".39688" style="paint-order:normal"/>
      <circle cx="2169.5" cy="427.3" r=".39688" style="paint-order:normal"/>
      <circle cx="2376.7" cy="330.03" r=".39688" style="paint-order:normal"/>
      <circle cx="2172.8" cy="427.68" r=".39688" style="paint-order:normal"/>
      <circle cx="2111.3" cy="367.8" r=".39688" style="paint-order:normal"/>
      <circle cx="2378.9" cy="407.9" r=".39688" style="paint-order:normal"/>
      <circle cx="2014.6" cy="217.98" r=".39688" style="paint-order:normal"/>
      <circle cx="2356.7" cy="304.11" r=".39688" style="paint-order:normal"/>
      <circle cx="2042.6" cy="245.71" r=".39688" style="paint-order:normal"/>
      <circle cx="2351.2" cy="386.02" r=".39688" style="paint-order:normal"/>
      <circle cx="2068.8" cy="376.2" r=".39688" style="paint-order:normal"/>
      <circle cx="2277.3" cy="392.23" r=".39688" style="paint-order:normal"/>
      <circle cx="2082.9" cy="331.31" r=".39688" style="paint-order:normal"/>
      <circle cx="2159.9" cy="202.03" r=".39688" style="paint-order:normal"/>
      <circle cx="2389.4" cy="217.52" r=".39688" style="paint-order:normal"/>
      <circle cx="2101.7" cy="330.35" r=".39688" style="paint-order:normal"/>
      <circle cx="2245.4" cy="423.08" r=".39688" style="paint-order:normal"/>
      <circle cx="2002.7" cy="293.71" r=".39688" style="paint-order:normal"/>
      <circle cx="2267.6" cy="257.15" r=".39688" style="paint-order:normal"/>
      <circle cx="2047.2" cy="207.36" r=".39688" style="paint-order:normal"/>
      <circle cx="2351.9" cy="290.74" r=".39688" style="paint-order:normal"/>
      <circle cx="2115.2" cy="366.89" r=".39688" style="paint-order:normal"/>
      <circle cx="2275.5" cy="304.2" r=".39688" style="paint-order:normal"/>
      <circle cx="2344.5" cy="411.39" r=".39688" style="paint-order:normal"/>
      <circle cx="1983" cy="286.14" r=".39688" style="paint-order:normal"/>
      <circle cx="2022.3" cy="294.8" r=".39688" style="paint-order:normal"/>
      <circle cx="2071.8" cy="419.58" r=".39688" style="paint-order:normal"/>
      <circle cx="2071.3" cy="252.89" r=".39688" style="paint-order:normal"/>
      <circle cx="2296.8" cy="405.31" r=".39688" style="paint-order:normal"/>
      <circle cx="2158.2" cy="225.6" r=".39688" style="paint-order:normal"/>
      <circle cx="2226.7" cy="297.68" r=".39688" style="paint-order:normal"/>
      <circle cx="2042.1" cy="353.68" r=".39688" style="paint-order:normal"/>
      <circle cx="2022.9" cy="321.15" r=".39688" style="paint-order:normal"/>
      <circle cx="1951.6" cy="416.26" r=".39688" style="paint-order:normal"/>
     </g>
     <g fill="#4d545d">
      <circle cx="2241.8" cy="250.43" r=".28112" style="paint-order:normal"/>
      <circle cx="2170.4" cy="233.24" r=".28112" style="paint-order:normal"/>
      <circle cx="2222.5" cy="207.57" r=".28112" style="paint-order:normal"/>
      <circle cx="2062.4" cy="234.82" r=".28112" style="paint-order:normal"/>
      <circle cx="2036.5" cy="306" r=".28112" style="paint-order:normal"/>
      <circle cx="2100.8" cy="366.59" r=".28112" style="paint-order:normal"/>
      <circle cx="2224.6" cy="372.41" r=".28112" style="paint-order:normal"/>
      <circle cx="2317.8" cy="340.92" r=".28112" style="paint-order:normal"/>
      <circle cx="2344.5" cy="275.57" r=".28112" style="paint-order:normal"/>
      <circle cx="2272.5" cy="261.55" r=".28112" style="paint-order:normal"/>
      <circle cx="2142.9" cy="339.33" r=".28112" style="paint-order:normal"/>
      <circle cx="2071.4" cy="349.12" r=".28112" style="paint-order:normal"/>
      <circle cx="2027" cy="326.9" r=".28112" style="paint-order:normal"/>
      <circle cx="2021.9" cy="241.7" r=".28112" style="paint-order:normal"/>
      <circle cx="2002.4" cy="202.54" r=".28112" style="paint-order:normal"/>
      <circle cx="1987.3" cy="207.31" r=".28112" style="paint-order:normal"/>
      <circle cx="1976.4" cy="270.81" r=".28112" style="paint-order:normal"/>
      <circle cx="1961.1" cy="310.49" r=".28112" style="paint-order:normal"/>
      <circle cx="1952.1" cy="202.54" r=".28112" style="paint-order:normal"/>
      <circle cx="1961.9" cy="197.78" r=".28112" style="paint-order:normal"/>
      <circle cx="2213.8" cy="224.77" r=".28112" style="paint-order:normal"/>
      <circle cx="2242.6" cy="274.51" r=".28112" style="paint-order:normal"/>
      <circle cx="2095" cy="297.79" r=".28112" style="paint-order:normal"/>
      <circle cx="2070.4" cy="344.1" r=".28112" style="paint-order:normal"/>
      <circle cx="2129.4" cy="398.34" r=".28112" style="paint-order:normal"/>
      <circle cx="2182" cy="407.07" r=".28112" style="paint-order:normal"/>
      <circle cx="2083.1" cy="322.4" r=".28112" style="paint-order:normal"/>
      <circle cx="2106.1" cy="293.03" r=".28112" style="paint-order:normal"/>
      <circle cx="2310.3" cy="244.35" r=".28112" style="paint-order:normal"/>
      <circle cx="2363.3" cy="335.89" r=".28112" style="paint-order:normal"/>
      <circle cx="2287.1" cy="388.55" r=".28112" style="paint-order:normal"/>
      <circle cx="2221.7" cy="350.71" r=".28112" style="paint-order:normal"/>
      <circle cx="2242.1" cy="347.54" r=".28112" style="paint-order:normal"/>
      <circle cx="2336" cy="380.08" r=".28112" style="paint-order:normal"/>
      <circle cx="2355.8" cy="329.28" r=".28112" style="paint-order:normal"/>
      <circle cx="2282.8" cy="345.95" r=".28112" style="paint-order:normal"/>
      <circle cx="2249.2" cy="367.38" r=".28112" style="paint-order:normal"/>
      <circle cx="2301.6" cy="322.4" r=".28112" style="paint-order:normal"/>
      <circle cx="2350.8" cy="316.84" r=".28112" style="paint-order:normal"/>
      <circle cx="2327" cy="278.48" r=".28112" style="paint-order:normal"/>
      <circle cx="2371.5" cy="227.94" r=".28112" style="paint-order:normal"/>
      <circle cx="2376.5" cy="190.64" r=".28112" style="paint-order:normal"/>
      <circle cx="2360.1" cy="318.43" r=".28112" style="paint-order:normal"/>
      <circle cx="2330.7" cy="363.15" r=".28112" style="paint-order:normal"/>
      <circle cx="2209.3" cy="222.12" r=".28112" style="paint-order:normal"/>
      <circle cx="2184.1" cy="221.33" r=".28112" style="paint-order:normal"/>
      <circle cx="2099.7" cy="257.05" r=".28112" style="paint-order:normal"/>
      <circle cx="2063.8" cy="343.3" r=".28112" style="paint-order:normal"/>
      <circle cx="2024.9" cy="389.08" r=".28112" style="paint-order:normal"/>
      <circle cx="1997.9" cy="389.34" r=".28112" style="paint-order:normal"/>
      <circle cx="1952.6" cy="290.65" r=".28112" style="paint-order:normal"/>
      <circle cx="1968.8" cy="206.25" r=".28112" style="paint-order:normal"/>
      <circle cx="1977" cy="187.2" r=".28112" style="paint-order:normal"/>
      <circle cx="2210.3" cy="246.46" r=".28112" style="paint-order:normal"/>
      <circle cx="2278.6" cy="228.74" r=".28112" style="paint-order:normal"/>
      <circle cx="2186" cy="241.17" r=".28112" style="paint-order:normal"/>
      <circle cx="2105" cy="298.06" r=".28112" style="paint-order:normal"/>
      <circle cx="2037.3" cy="289.06" r=".28112" style="paint-order:normal"/>
      <circle cx="2033.6" cy="226.36" r=".28112" style="paint-order:normal"/>
      <circle cx="2008.7" cy="207.04" r=".28112" style="paint-order:normal"/>
      <circle cx="1982.3" cy="194.08" r=".28112" style="paint-order:normal"/>
      <circle cx="1961.9" cy="196.46" r=".28112" style="paint-order:normal"/>
      <circle cx="2027" cy="189.58" r=".28112" style="paint-order:normal"/>
      <circle cx="2156.1" cy="202.81" r=".28112" style="paint-order:normal"/>
      <circle cx="2267.5" cy="226.36" r=".28112" style="paint-order:normal"/>
      <circle cx="2360.3" cy="226.89" r=".28112" style="paint-order:normal"/>
      <circle cx="2210.1" cy="212.6" r=".28112" style="paint-order:normal"/>
      <circle cx="2155.8" cy="279.8" r=".28112" style="paint-order:normal"/>
      <circle cx="2076.4" cy="316.58" r=".28112" style="paint-order:normal"/>
      <circle cx="2048.9" cy="376.38" r=".28112" style="paint-order:normal"/>
      <circle cx="2007.9" cy="363.94" r=".28112" style="paint-order:normal"/>
      <circle cx="1969.8" cy="319.23" r=".28112" style="paint-order:normal"/>
      <circle cx="2048.7" cy="311.82" r=".28112" style="paint-order:normal"/>
      <circle cx="2116.1" cy="300.7" r=".28112" style="paint-order:normal"/>
      <circle cx="2082.8" cy="362.09" r=".28112" style="paint-order:normal"/>
      <circle cx="2252.1" cy="378.49" r=".28112" style="paint-order:normal"/>
      <circle cx="2213.2" cy="329.01" r=".28112" style="paint-order:normal"/>
      <circle cx="2152.4" cy="361.82" r=".28112" style="paint-order:normal"/>
      <circle cx="2141.5" cy="389.08" r=".28112" style="paint-order:normal"/>
      <circle cx="2167.7" cy="403.1" r=".28112" style="paint-order:normal"/>
      <circle cx="2324.9" cy="347.01" r=".28112" style="paint-order:normal"/>
      <circle cx="2332.8" cy="368.97" r=".28112" style="paint-order:normal"/>
      <circle cx="2394.5" cy="386.69" r=".28112" style="paint-order:normal"/>
      <circle cx="2365.1" cy="411.56" r=".28112" style="paint-order:normal"/>
      <circle cx="2328.1" cy="415.53" r=".28112" style="paint-order:normal"/>
      <circle cx="2336" cy="306" r=".28112" style="paint-order:normal"/>
      <circle cx="2357.7" cy="264.72" r=".28112" style="paint-order:normal"/>
      <circle cx="2354.3" cy="226.89" r=".28112" style="paint-order:normal"/>
      <circle cx="2367" cy="209.95" r=".28112" style="paint-order:normal"/>
      <circle cx="2341.6" cy="222.92" r=".28112" style="paint-order:normal"/>
      <circle cx="2310.9" cy="261.81" r=".28112" style="paint-order:normal"/>
      <circle cx="2153.7" cy="231.65" r=".28112" style="paint-order:normal"/>
      <circle cx="2113.2" cy="241.97" r=".28112" style="paint-order:normal"/>
      <circle cx="2181.2" cy="267.9" r=".28112" style="paint-order:normal"/>
      <circle cx="2223.6" cy="264.72" r=".28112" style="paint-order:normal"/>
      <circle cx="2226.5" cy="232.44" r=".28112" style="paint-order:normal"/>
      <circle cx="2086" cy="298.59" r=".28112" style="paint-order:normal"/>
      <circle cx="2054.2" cy="338.28" r=".28112" style="paint-order:normal"/>
      <circle cx="2078.8" cy="303.61" r=".28112" style="paint-order:normal"/>
      <circle cx="2102.6" cy="265.78" r=".28112" style="paint-order:normal"/>
      <circle cx="2063.8" cy="213.13" r=".28112" style="paint-order:normal"/>
      <circle cx="2150.3" cy="330.87" r=".28112" style="paint-order:normal"/>
      <circle cx="2174.6" cy="362.62" r=".28112" style="paint-order:normal"/>
      <circle cx="2155.3" cy="375.05" r=".28112" style="paint-order:normal"/>
      <circle cx="2059" cy="401.25" r=".28112" style="paint-order:normal"/>
      <circle cx="1985.2" cy="406.01" r=".28112" style="paint-order:normal"/>
     </g>
     <g fill="#888a85">
      <circle cx="2025.1" cy="183.14" r=".39688" style="paint-order:normal"/>
      <circle cx="2039.5" cy="197.88" r=".39688" style="paint-order:normal"/>
      <circle cx="2050.7" cy="202.61" r=".39688" style="paint-order:normal"/>
      <circle cx="2073.7" cy="212.08" r=".39688" style="paint-order:normal"/>
      <circle cx="2088.6" cy="233.17" r=".39688" style="paint-order:normal"/>
      <circle cx="2087.3" cy="224.79" r=".39688" style="paint-order:normal"/>
      <circle cx="2063.2" cy="216.13" r=".39688" style="paint-order:normal"/>
      <circle cx="2118.4" cy="254.27" r=".39688" style="paint-order:normal"/>
      <circle cx="2077.9" cy="222.08" r=".39688" style="paint-order:normal"/>
      <circle cx="2111.7" cy="242.1" r=".39688" style="paint-order:normal"/>
      <circle cx="2123.9" cy="249.13" r=".39688" style="paint-order:normal"/>
      <circle cx="2178.8" cy="272.39" r=".39688" style="paint-order:normal"/>
      <circle cx="2228" cy="306.47" r=".39688" style="paint-order:normal"/>
      <circle cx="2277" cy="347.58" r=".39688" style="paint-order:normal"/>
      <circle cx="2299.4" cy="368.13" r=".39688" style="paint-order:normal"/>
      <circle cx="2315.9" cy="392.47" r=".39688" style="paint-order:normal"/>
      <circle cx="2317.3" cy="377.87" r=".39688" style="paint-order:normal"/>
      <circle cx="2276.2" cy="345.95" r=".39688" style="paint-order:normal"/>
      <circle cx="2242.1" cy="322.96" r=".39688" style="paint-order:normal"/>
      <circle cx="2220.5" cy="310.79" r=".39688" style="paint-order:normal"/>
      <circle cx="2173.7" cy="287.26" r=".39688" style="paint-order:normal"/>
      <circle cx="2186.1" cy="281.31" r=".39688" style="paint-order:normal"/>
      <circle cx="2184.5" cy="278.61" r=".39688" style="paint-order:normal"/>
      <circle cx="2152" cy="266.71" r=".39688" style="paint-order:normal"/>
      <circle cx="2142.6" cy="261.3" r=".39688" style="paint-order:normal"/>
      <circle cx="2129" cy="257.78" r=".39688" style="paint-order:normal"/>
      <circle cx="2225.6" cy="304.03" r=".39688" style="paint-order:normal"/>
      <circle cx="2289.7" cy="354.07" r=".39688" style="paint-order:normal"/>
      <circle cx="2307.5" cy="371.92" r=".39688" style="paint-order:normal"/>
     </g>
     <g fill="#4d545d">
      <circle cx="2033.8" cy="189.63" r=".28112" style="paint-order:normal"/>
      <circle cx="2044.7" cy="200.72" r=".28112" style="paint-order:normal"/>
      <circle cx="2062" cy="213.7" r=".28112" style="paint-order:normal"/>
      <circle cx="2066.3" cy="201.53" r=".28112" style="paint-order:normal"/>
      <circle cx="2044.4" cy="200.18" r=".28112" style="paint-order:normal"/>
      <circle cx="2072.5" cy="198.01" r=".28112" style="paint-order:normal"/>
      <circle cx="2115.8" cy="231.01" r=".28112" style="paint-order:normal"/>
      <circle cx="2115.3" cy="265.9" r=".28112" style="paint-order:normal"/>
      <circle cx="2114.7" cy="251.29" r=".28112" style="paint-order:normal"/>
      <circle cx="2071.4" cy="232.63" r=".28112" style="paint-order:normal"/>
      <circle cx="2131.5" cy="226.95" r=".28112" style="paint-order:normal"/>
      <circle cx="2146.4" cy="267.52" r=".28112" style="paint-order:normal"/>
      <circle cx="2176.9" cy="283.21" r=".28112" style="paint-order:normal"/>
      <circle cx="2138.8" cy="264" r=".28112" style="paint-order:normal"/>
      <circle cx="2185.8" cy="294.57" r=".28112" style="paint-order:normal"/>
      <circle cx="2243.2" cy="307.82" r=".28112" style="paint-order:normal"/>
      <circle cx="2195.6" cy="321.88" r=".28112" style="paint-order:normal"/>
      <circle cx="2244" cy="306.2" r=".28112" style="paint-order:normal"/>
      <circle cx="2272.4" cy="317.01" r=".28112" style="paint-order:normal"/>
      <circle cx="2310" cy="354.61" r=".28112" style="paint-order:normal"/>
      <circle cx="2317" cy="393.28" r=".28112" style="paint-order:normal"/>
      <circle cx="2314" cy="408.7" r=".28112" style="paint-order:normal"/>
      <circle cx="2333" cy="426.28" r=".28112" style="paint-order:normal"/>
      <circle cx="2355.4" cy="414.11" r=".28112" style="paint-order:normal"/>
      <circle cx="2362.7" cy="411.67" r=".28112" style="paint-order:normal"/>
      <circle cx="2282.4" cy="346.22" r=".28112" style="paint-order:normal"/>
      <circle cx="2214" cy="295.38" r=".28112" style="paint-order:normal"/>
      <circle cx="2225.9" cy="286.99" r=".28112" style="paint-order:normal"/>
      <circle cx="2258.1" cy="311.06" r=".28112" style="paint-order:normal"/>
      <circle cx="2189.9" cy="314.85" r=".28112" style="paint-order:normal"/>
      <circle cx="2169.6" cy="309.98" r=".28112" style="paint-order:normal"/>
      <circle cx="2148.8" cy="291.59" r=".28112" style="paint-order:normal"/>
      <circle cx="2109.8" cy="265.63" r=".28112" style="paint-order:normal"/>
      <circle cx="2112.3" cy="257.51" r=".28112" style="paint-order:normal"/>
      <circle cx="2148.8" cy="233.71" r=".28112" style="paint-order:normal"/>
      <circle cx="2221.3" cy="269.95" r=".28112" style="paint-order:normal"/>
      <circle cx="2315.1" cy="314.85" r=".28112" style="paint-order:normal"/>
      <circle cx="2337" cy="364.61" r=".28112" style="paint-order:normal"/>
      <circle cx="2300" cy="363.26" r=".28112" style="paint-order:normal"/>
      <circle cx="2252.9" cy="345.68" r=".28112" style="paint-order:normal"/>
      <circle cx="2273.2" cy="354.88" r=".28112" style="paint-order:normal"/>
      <circle cx="2207.5" cy="317.01" r=".28112" style="paint-order:normal"/>
      <circle cx="2211" cy="333.51" r=".28112" style="paint-order:normal"/>
      <circle cx="2230.2" cy="337.3" r=".28112" style="paint-order:normal"/>
      <circle cx="2268.6" cy="341.08" r=".28112" style="paint-order:normal"/>
      <circle cx="2214" cy="271.58" r=".28112" style="paint-order:normal"/>
      <circle cx="2025.2" cy="186.38" r=".28112" style="paint-order:normal"/>
     </g>
    </g>
    <g transform="matrix(1.5 0 0 1.5 -969.81 -217.26)" clip-path="url(#clipPath2158-2-6)">
     <g transform="matrix(.84665 -.84665 .84665 .84665 609.59 1402.9)" stroke-width=".83519">
      <g transform="matrix(0 -.47175 .56553 0 1324.4 254.27)" fill="none" stroke-width="1.0956">
       <g transform="matrix(-1 0 0 1 288.4 -.27719)" stroke="#fff">
        <g stroke="#fff"></g>
       </g>
       <g transform="translate(0 -.27719)">
        <path transform="matrix(-.66459 0 0 -.55438 3361.5 594.33)" d="m4842.8 658.62a0.87246 1.0459 0 0 0-0.8906 1.0977v23.316c-0.3009 0.0167-0.5944 0.043-0.9082 0.043-0.3134 0-0.6076-0.0263-0.9082-0.043v-23.316a0.87305 1.0466 0 0 0-1.7461 0v23.129c-0.6916-0.12231-1.2947-0.29279-1.8164-0.4961v-22.633a0.87283 1.0464 0 1 0-1.7441 0v24.877a0.87262 1.0461 0 0 0 0.023 0.25782c0.1905 1.605 2.1478 2.9145 4.7363 3.2812v10.117l-1.9414 2.6309c-0.4998 0.6755-0.099 1.7418 0.6543 1.7402h5.4844c0.7522-5.5e-4 1.1514-1.0656 0.6523-1.7402l-1.9433-2.6328v-10.115c2.5986-0.36725 4.5604-1.6841 4.7402-3.2969a0.87246 1.0459 0 0 0 0.021-0.24219v-24.877a0.87305 1.0466 0 1 0-1.7461 0v22.633c-0.5216 0.20318-1.1252 0.37389-1.8164 0.4961v-23.129a0.87246 1.0459 0 0 0-0.8516-1.0977z" color="#000000" color-rendering="auto" dominant-baseline="auto" fill="url(#linearGradient20971)" fill-rule="evenodd" image-rendering="auto" shape-rendering="auto" solid-color="#000000" style="font-feature-settings:normal;font-variant-alternates:normal;font-variant-caps:normal;font-variant-ligatures:normal;font-variant-numeric:normal;font-variant-position:normal;isolation:auto;mix-blend-mode:normal;shape-padding:0;text-decoration-color:#000000;text-decoration-line:none;text-decoration-style:solid;text-indent:0;text-orientation:mixed;text-transform:none;white-space:normal"/>
       </g>
       <g transform="translate(0 -.13859)">
        <path transform="matrix(-.66459 0 0 -.55438 3361.5 594.19)" d="m4824.4 661.88a0.87262 1.0461 0 0 0-0.5391 0.24219c-3.034 2.9384-4.6055 6.8752-4.6055 10.828 0 3.953 1.5715 7.8838 4.6055 10.822a0.87275 1.0463 0 1 0 1.0977-1.627c-2.6754-2.5911-3.9571-5.9009-3.9571-9.1953 0-3.2944 1.2817-6.6081 3.9571-9.1992a0.87262 1.0461 0 0 0-0.5586-1.8711zm33.166 0a0.87262 1.0461 0 0 0-0.5547 1.8711c2.6753 2.5911 3.959 5.9048 3.959 9.1992 0 3.2944-1.2837 6.6042-3.959 9.1953a0.87262 1.0461 0 1 0 1.0957 1.627c3.0339-2.9384 4.6094-6.8693 4.6094-10.822 0-3.953-1.5755-7.8897-4.6094-10.828a0.87262 1.0461 0 0 0-0.5371-0.24219zm-29.783 3.2793a0.87262 1.0461 0 0 0-0.5352 0.24414c-2.0996 2.0326-3.207 4.7809-3.207 7.5469 0 2.766 1.1074 5.5103 3.207 7.543a0.87275 1.0463 0 1 0 1.0957-1.6289c-1.7409-1.6854-2.5566-3.8069-2.5566-5.9141 0-2.1072 0.8157-4.2345 2.5566-5.9199a0.87262 1.0461 0 0 0-0.5605-1.8711zm26.4 0a0.87262 1.0461 0 0 0-0.5547 1.8711c1.7409 1.6854 2.5566 3.8128 2.5566 5.9199 0 2.1071-0.8157 4.2286-2.5566 5.9141a0.87275 1.0463 0 1 0 1.0957 1.6289c2.0996-2.0326 3.2051-4.777 3.2051-7.543 0-2.766-1.1055-5.5142-3.2051-7.5469a0.87262 1.0461 0 0 0-0.5371-0.24414zm-23.238 3.0625a0.87262 1.0461 0 0 0-0.5391 0.24023c-1.2268 1.1876-1.8945 2.8298-1.8945 4.4883 0 1.6585 0.6677 3.2968 1.8945 4.4844a0.87275 1.0463 0 1 0 1.0977-1.627c-0.8682-0.84042-1.2461-1.8578-1.2461-2.8574 0-0.9996 0.3779-2.0209 1.2461-2.8613a0.87262 1.0461 0 0 0-0.5586-1.8672zm20.084 0a0.87262 1.0461 0 0 0-0.5625 1.8672c0.8681 0.84042 1.25 1.8617 1.25 2.8613 0 0.99959-0.3819 2.017-1.25 2.8574a0.87262 1.0461 0 1 0 1.0957 1.627c1.2268-1.1876 1.8965-2.8259 1.8965-4.4844 0-1.6585-0.6697-3.3007-1.8965-4.4883a0.87262 1.0461 0 0 0-0.5332-0.24023z" color="#000000" color-rendering="auto" dominant-baseline="auto" fill="#66dd83" image-rendering="auto" shape-rendering="auto" solid-color="#000000" style="font-feature-settings:normal;font-variant-alternates:normal;font-variant-caps:normal;font-variant-ligatures:normal;font-variant-numeric:normal;font-variant-position:normal;isolation:auto;mix-blend-mode:normal;paint-order:normal;shape-padding:0;text-decoration-color:#000000;text-decoration-line:none;text-decoration-style:solid;text-indent:0;text-orientation:mixed;text-transform:none;white-space:normal"/>
       </g>
      </g>
      <g transform="matrix(.84576 0 0 1 302.66 3.5763)" stroke-width="1.0874">
       <rect x="1328.7" y="179.67" width="16.529" height="5.9872" rx="1.1824" ry="1" fill="url(#linearGradient20973)" style="paint-order:normal"/>
      </g>
      <g transform="translate(-1.8512 .03307)">
       <g transform="translate(0 .19309)" stroke-width="1.2089">
        <g transform="matrix(0 1.1361 -.60228 0 1543.6 -1346.4)">
         <g stroke-width="1.2532">
          <g transform="matrix(.83835 0 0 1.11 217.46 -20.43)">
           <path d="m1342.1 181.76v3.9005h3.196v-3.9005z" fill="url(#linearGradient20975)" style="paint-order:normal"/>
           <path d="m1342.1 176.81v3.9005h3.196v-3.9005z" fill="url(#linearGradient20977)" style="paint-order:normal"/>
          </g>
          <g transform="matrix(.83835 0 0 1.11 214.2 -20.43)">
           <path d="m1342.1 181.76v3.9005h3.196v-3.9005z" fill="url(#linearGradient20975)" style="paint-order:normal"/>
           <path d="m1342.1 176.81v3.9005h3.196v-3.9005z" fill="url(#linearGradient20977)" style="paint-order:normal"/>
          </g>
          <g transform="matrix(.83835 0 0 1.11 210.94 -20.43)">
           <path d="m1342.1 181.76v3.9005h3.196v-3.9005z" fill="url(#linearGradient20975)" style="paint-order:normal"/>
           <path d="m1342.1 176.81v3.9005h3.196v-3.9005z" fill="url(#linearGradient20977)" style="paint-order:normal"/>
          </g>
          <g transform="matrix(.83835 0 0 1.11 207.68 -20.43)">
           <path d="m1342.1 181.76v3.9005h3.196v-3.9005z" fill="url(#linearGradient20975)" style="paint-order:normal"/>
           <path d="m1342.1 176.81v3.9005h3.196v-3.9005z" fill="url(#linearGradient20977)" style="paint-order:normal"/>
          </g>
         </g>
        </g>
        <g transform="matrix(0 -1.1361 -.60228 0 1543.6 1718.5)">
         <g stroke-width="1.2532">
          <g transform="matrix(.83835 0 0 1.11 217.46 -20.43)">
           <path d="m1342.1 181.76v3.9005h3.196v-3.9005z" fill="url(#linearGradient20975)" style="paint-order:normal"/>
           <path d="m1342.1 176.81v3.9005h3.196v-3.9005z" fill="url(#linearGradient20977)" style="paint-order:normal"/>
          </g>
          <g transform="matrix(.83835 0 0 1.11 214.2 -20.43)">
           <path d="m1342.1 181.76v3.9005h3.196v-3.9005z" fill="url(#linearGradient20975)" style="paint-order:normal"/>
           <path d="m1342.1 176.81v3.9005h3.196v-3.9005z" fill="url(#linearGradient20977)" style="paint-order:normal"/>
          </g>
          <g transform="matrix(.83835 0 0 1.11 210.94 -20.43)">
           <path d="m1342.1 181.76v3.9005h3.196v-3.9005z" fill="url(#linearGradient20975)" style="paint-order:normal"/>
           <path d="m1342.1 176.81v3.9005h3.196v-3.9005z" fill="url(#linearGradient20977)" style="paint-order:normal"/>
          </g>
          <g transform="matrix(.83835 0 0 1.11 207.68 -20.43)">
           <path d="m1342.1 181.76v3.9005h3.196v-3.9005z" fill="url(#linearGradient20975)" style="paint-order:normal"/>
           <path d="m1342.1 176.81v3.9005h3.196v-3.9005z" fill="url(#linearGradient20977)" style="paint-order:normal"/>
          </g>
         </g>
        </g>
       </g>
      </g>
     </g>
     <g transform="translate(-90.07 67.935)">
      <path d="m2130.2 253.65c-4.432 0-8 3.568-8 8v8.3626l-27.558 8.8263 27.558 8.2223v6.9844c0 4.432 3.568 8 8 8h177.4c4.432 0 8-3.568 8-8v-32.396c0-4.432-3.568-8-8-8z" fill="#25322b" fill-opacity=".50196" stroke="#90dd84" stroke-dashoffset="2.168" stroke-linecap="round" stroke-linejoin="round" stroke-width="1.5" style="paint-order:normal"/>
      <g stroke-width=".26458px" aria-label="&gt; visualizes collaboration, &gt; usage, and health data for &gt; GitHub Enterprise">
       <g fill="#a2ff94" stroke-width=".26458px">
        <path d="m2132.7 270.31 3.8957-2.604v-0.744l-3.8957-2.604v0.96101l3.0174 1.9944v0.0413l-3.0174 1.9944z"/>
        <path d="m2146.6 270.76h1.1574l2.0253-5.053h-0.9817l-1.0643 2.7487c-0.1963 0.50634-0.3513 1.0024-0.527 1.4984h-0.041c-0.1757-0.496-0.341-0.99201-0.5374-1.4984l-1.0643-2.7487h-1.0334z"/>
        <path d="m2153.4 270.76h1.023v-5.053h-3.2861v0.82667h2.2631zm0.4236-6.0347c0.434 0 0.7647-0.28933 0.7647-0.73367 0-0.43401-0.3307-0.73368-0.7647-0.73368s-0.7646 0.29967-0.7646 0.73368c0 0.44434 0.3306 0.73367 0.7646 0.73367z"/>
        <path d="m2159.6 270.89c1.488 0 2.3147-0.69234 2.3147-1.5397 0-0.78534-0.4134-1.209-2.0667-1.5707-0.9817-0.20667-1.3847-0.37201-1.3847-0.76468 0-0.35133 0.279-0.64067 1.0437-0.64067 0.62 0 1.1987 0.19633 1.6843 0.51667l0.4754-0.64067c-0.5064-0.34101-1.271-0.66134-2.0667-0.66134-1.4054 0-2.1597 0.63034-2.1597 1.4777 0 0.76467 0.6303 1.2194 1.9634 1.4984 1.271 0.26867 1.4776 0.48567 1.4776 0.84734 0 0.38234-0.372 0.69234-1.147 0.69234-0.8783 0-1.5603-0.248-2.1493-0.66134l-0.4547 0.66134c0.6097 0.42367 1.5087 0.78534 2.4697 0.78534z"/>
        <path d="m2165.1 270.89c0.7647 0 1.333-0.39267 1.829-0.96101h0.041l0.083 0.83701h0.837v-5.053h-1.023v3.4617c-0.496 0.59934-0.8886 0.83701-1.4157 0.83701-0.7646 0-1.054-0.41334-1.054-1.302v-2.9967h-1.023v3.131c0 1.3227 0.5374 2.046 1.7257 2.046z"/>
        <path d="m2171.3 270.89c0.6923 0 1.395-0.36167 1.9323-0.775h0.031l0.083 0.651h0.837v-3.038c0-1.333-0.713-2.139-2.108-2.139-0.8784 0-1.7154 0.372-2.2734 0.71301l0.3824 0.69234c0.496-0.28934 1.0953-0.56834 1.7153-0.56834 0.899 0 1.2297 0.50634 1.2607 1.1263-2.542 0.19634-3.565 0.74401-3.565 1.8807 0 0.88867 0.7336 1.457 1.705 1.457zm0.2893-0.81634c-0.5477 0-1.0023-0.20667-1.0023-0.71301 0-0.60967 0.589-1.0023 2.573-1.1573v1.1987c-0.5167 0.42367-1.0334 0.67167-1.5707 0.67167z"/>
        <path d="m2179.2 270.89c0.5684 0 0.9094-0.10333 1.3951-0.28933l-0.248-0.76468c-0.341 0.14467-0.6304 0.217-0.9094 0.217-0.558 0-0.9507-0.28933-0.9507-0.99201v-5.6214h-2.6763v0.81634h1.6533v4.743c0 1.2194 0.6097 1.891 1.736 1.891z"/>
        <path d="m2184.4 270.76h1.023v-5.053h-3.286v0.82667h2.263zm0.4237-6.0347c0.434 0 0.7646-0.28933 0.7646-0.73367 0-0.43401-0.3306-0.73368-0.7646-0.73368s-0.7647 0.29967-0.7647 0.73368c0 0.44434 0.3307 0.73367 0.7647 0.73367z"/>
        <path d="m2188.1 270.76h4.7844v-0.82667h-3.3481l3.2551-3.6787v-0.54767h-4.3298v0.82667h2.8727l-3.2343 3.6787z"/>
        <path d="m2197 270.89c0.775 0 1.4466-0.25833 1.9633-0.59934l-0.3617-0.651c-0.4546 0.279-0.9093 0.44433-1.4673 0.44433-0.992 0-1.736-0.50633-1.8497-1.55h3.844c0.021-0.13434 0.041-0.341 0.041-0.55801 0-1.4054-0.837-2.387-2.325-2.387-1.3434 0-2.5834 1.0023-2.5834 2.6454 0 1.6844 1.209 2.6557 2.7384 2.6557zm-0.124-4.495c0.7853 0 1.302 0.465 1.3743 1.3847h-2.945c0.155-0.89901 0.806-1.3847 1.5707-1.3847z"/>
        <path d="m2203 270.89c1.488 0 2.3147-0.69234 2.3147-1.5397 0-0.78534-0.4134-1.209-2.0667-1.5707-0.9817-0.20667-1.3847-0.37201-1.3847-0.76468 0-0.35133 0.279-0.64067 1.0437-0.64067 0.62 0 1.1987 0.19633 1.6843 0.51667l0.4754-0.64067c-0.5064-0.34101-1.271-0.66134-2.0667-0.66134-1.4054 0-2.1597 0.63034-2.1597 1.4777 0 0.76467 0.6303 1.2194 1.9633 1.4984 1.2711 0.26867 1.4777 0.48567 1.4777 0.84734 0 0.38234-0.372 0.69234-1.147 0.69234-0.8783 0-1.5603-0.248-2.1493-0.66134l-0.4547 0.66134c0.6097 0.42367 1.5087 0.78534 2.4697 0.78534z"/>
       </g>
       <g fill="#fff">
        <path d="m2215.7 270.89c0.7337 0 1.4571-0.279 2.0254-0.775l-0.4443-0.66135c-0.403 0.33067-0.8887 0.59934-1.4984 0.59934-1.0747 0-1.8083-0.72334-1.8083-1.8084s0.7543-1.8084 1.8393-1.8084c0.496 0 0.9094 0.19634 1.3124 0.52701l0.496-0.65101c-0.4134-0.40301-1.0334-0.72334-1.8601-0.72334-1.5293 0-2.8417 0.97134-2.8417 2.6557 0 1.674 1.1987 2.6454 2.7797 2.6454z"/>
        <path d="m2221.5 270.89c1.3226 0 2.5213-0.97134 2.5213-2.6454 0-1.6844-1.1987-2.6557-2.5213-2.6557-1.3227 0-2.5214 0.97134-2.5214 2.6557 0 1.674 1.1987 2.6454 2.5214 2.6454zm0-0.83701c-0.899 0-1.4674-0.72334-1.4674-1.8084s0.5684-1.8084 1.4674-1.8084 1.4673 0.72334 1.4673 1.8084-0.5683 1.8084-1.4673 1.8084z"/>
        <path d="m2228.7 270.89c0.5683 0 0.9093-0.10333 1.395-0.28933l-0.248-0.76468c-0.341 0.14467-0.6304 0.217-0.9094 0.217-0.558 0-0.9506-0.28933-0.9506-0.99201v-5.6214h-2.6764v0.81634h1.6534v4.743c0 1.2194 0.6096 1.891 1.736 1.891z"/>
        <path d="m2234.9 270.89c0.5683 0 0.9093-0.10333 1.395-0.28933l-0.248-0.76468c-0.341 0.14467-0.6303 0.217-0.9093 0.217-0.558 0-0.9507-0.28933-0.9507-0.99201v-5.6214h-2.6764v0.81634h1.6534v4.743c0 1.2194 0.6097 1.891 1.736 1.891z"/>
        <path d="m2239.5 270.89c0.6923 0 1.395-0.36167 1.9323-0.775h0.031l0.083 0.651h0.837v-3.038c0-1.333-0.713-2.139-2.108-2.139-0.8784 0-1.7154 0.372-2.2734 0.71301l0.3824 0.69234c0.496-0.28934 1.0953-0.56834 1.7153-0.56834 0.899 0 1.2297 0.50634 1.2607 1.1263-2.542 0.19634-3.565 0.74401-3.565 1.8807 0 0.88867 0.7336 1.457 1.705 1.457zm0.2893-0.81634c-0.5477 0-1.0023-0.20667-1.0023-0.71301 0-0.60967 0.589-1.0023 2.573-1.1573v1.1987c-0.5167 0.42367-1.0333 0.67167-1.5707 0.67167z"/>
        <path d="m2246.5 270.89c1.178 0 2.263-1.0023 2.263-2.728 0-1.5603-0.7543-2.573-2.0873-2.573-0.5684 0-1.178 0.28933-1.612 0.72334h-0.031l0.041-0.93001v-1.9427h-1.023v7.3264h0.806l0.093-0.558h0.031c0.4547 0.434 1.0333 0.682 1.519 0.682zm-0.1963-0.84734c-0.3307 0-0.806-0.14467-1.2297-0.527v-2.387c0.4547-0.47534 0.9197-0.68201 1.333-0.68201 0.9094 0 1.302 0.67168 1.302 1.7257 0 1.1987-0.6096 1.8704-1.4053 1.8704z"/>
        <path d="m2252.5 270.89c1.3227 0 2.5214-0.97134 2.5214-2.6454 0-1.6844-1.1987-2.6557-2.5214-2.6557s-2.5214 0.97134-2.5214 2.6557c0 1.674 1.1987 2.6454 2.5214 2.6454zm0-0.83701c-0.899 0-1.4673-0.72334-1.4673-1.8084s0.5683-1.8084 1.4673-1.8084 1.4674 0.72334 1.4674 1.8084-0.5684 1.8084-1.4674 1.8084z"/>
        <path d="m2257 270.76h1.023v-2.8727c0.558-1.0127 1.2607-1.3847 1.984-1.3847 0.3824 0 0.5787 0.0517 0.9197 0.16534l0.2274-0.87834c-0.31-0.14467-0.5994-0.20667-0.9921-0.20667-0.899 0-1.6843 0.48567-2.201 1.302h-0.031l-0.083-1.178h-0.8474z"/>
        <path d="m2264.2 270.89c0.6923 0 1.395-0.36167 1.9323-0.775h0.031l0.083 0.651h0.837v-3.038c0-1.333-0.713-2.139-2.108-2.139-0.8784 0-1.7154 0.372-2.2734 0.71301l0.3824 0.69234c0.496-0.28934 1.0953-0.56834 1.7153-0.56834 0.899 0 1.2297 0.50634 1.2607 1.1263-2.542 0.19634-3.565 0.74401-3.565 1.8807 0 0.88867 0.7336 1.457 1.705 1.457zm0.2893-0.81634c-0.5477 0-1.0023-0.20667-1.0023-0.71301 0-0.60967 0.589-1.0023 2.573-1.1573v1.1987c-0.5167 0.42367-1.0333 0.67167-1.5707 0.67167z"/>
        <path d="m2272 270.89c0.651 0 1.147-0.13433 1.6016-0.28933l-0.2066-0.75434c-0.3514 0.13433-0.713 0.217-1.1574 0.217-0.9196 0-1.2193-0.42367-1.2193-1.2917v-2.232h2.387v-0.82667h-2.387v-1.6017h-0.8474l-0.1343 1.6017-1.426 0.0517v0.775h1.3847v2.232c0 1.2607 0.5063 2.1184 2.0047 2.1184z"/>
        <path d="m2277.3 270.76h1.023v-5.053h-3.286v0.82667h2.263zm0.4237-6.0347c0.434 0 0.7647-0.28933 0.7647-0.73367 0-0.43401-0.3307-0.73368-0.7647-0.73368s-0.7647 0.29967-0.7647 0.73368c0 0.44434 0.3307 0.73367 0.7647 0.73367z"/>
        <path d="m2283.4 270.89c1.3227 0 2.5214-0.97134 2.5214-2.6454 0-1.6844-1.1987-2.6557-2.5214-2.6557-1.3226 0-2.5213 0.97134-2.5213 2.6557 0 1.674 1.1987 2.6454 2.5213 2.6454zm0-0.83701c-0.899 0-1.4673-0.72334-1.4673-1.8084s0.5683-1.8084 1.4673-1.8084c0.8991 0 1.4674 0.72334 1.4674 1.8084s-0.5683 1.8084-1.4674 1.8084z"/>
        <path d="m2287.4 270.76h1.023v-3.4824c0.5167-0.53734 0.899-0.80601 1.4363-0.80601 0.7647 0 1.0541 0.41334 1.0541 1.2917v2.9967h1.023v-3.131c0-1.3124-0.5374-2.046-1.7154-2.046-0.7853 0-1.3537 0.41334-1.86 0.94034h-0.041l-0.083-0.81634h-0.837z"/>
        <path d="m2295 272.97c1.209-0.42367 1.9014-1.2917 1.9014-2.5317 0-0.88868-0.3514-1.4364-1.0127-1.4364-0.496 0-0.9093 0.31-0.9093 0.85767 0 0.55801 0.403 0.84734 0.8886 0.84734 0.052 0 0.1137 0 0.1654-0.0103-0.021 0.76468-0.4547 1.2814-1.3124 1.643z"/>
       </g>
       <path d="m2132.7 280.74 3.8957-2.604v-0.74401l-3.8957-2.604v0.96101l3.0174 1.9944v0.0413l-3.0174 1.9944z" fill="#a2ff94" stroke-width=".26458px"/>
       <g fill="#fff">
        <path d="m2146.5 281.32c0.7647 0 1.333-0.39267 1.829-0.96101h0.041l0.083 0.83701h0.8371v-5.0531h-1.0231v3.4617c-0.496 0.59933-0.8886 0.837-1.4156 0.837-0.7647 0-1.054-0.41333-1.054-1.302v-2.9967h-1.0231v3.131c0 1.3227 0.5374 2.046 1.7257 2.046z"/>
        <path d="m2153.4 281.32c1.488 0 2.3147-0.69234 2.3147-1.5397 0-0.78534-0.4134-1.209-2.0667-1.5707-0.9817-0.20667-1.3847-0.372-1.3847-0.76467 0-0.35134 0.279-0.64068 1.0437-0.64068 0.62 0 1.1986 0.19634 1.6843 0.51667l0.4753-0.64067c-0.5063-0.341-1.271-0.66134-2.0666-0.66134-1.4054 0-2.1597 0.63034-2.1597 1.4777 0 0.76468 0.6303 1.2194 1.9633 1.4984 1.271 0.26867 1.4777 0.48567 1.4777 0.84734 0 0.38234-0.372 0.69234-1.147 0.69234-0.8783 0-1.5604-0.248-2.1494-0.66134l-0.4546 0.66134c0.6096 0.42368 1.5087 0.78535 2.4697 0.78535z"/>
        <path d="m2158.9 281.32c0.6924 0 1.395-0.36167 1.9324-0.77501h0.031l0.083 0.65101h0.837v-3.038c0-1.333-0.713-2.139-2.108-2.139-0.8783 0-1.7153 0.37201-2.2733 0.71301l0.3823 0.69234c0.496-0.28934 1.0953-0.56834 1.7154-0.56834 0.899 0 1.2296 0.50634 1.2606 1.1264-2.542 0.19633-3.565 0.744-3.565 1.8807 0 0.88868 0.7337 1.457 1.705 1.457zm0.2894-0.81635c-0.5477 0-1.0024-0.20666-1.0024-0.713 0-0.60968 0.589-1.0024 2.573-1.1574v1.1987c-0.5166 0.42367-1.0333 0.67167-1.5706 0.67167z"/>
        <path d="m2165.6 283.48c1.7464 0 2.8624-0.80601 2.8624-1.7877 0-0.85768-0.651-1.209-1.9634-1.209h-1.0747c-0.651 0-1.0023-0.16534-1.0023-0.52701 0-0.217 0.124-0.38234 0.3513-0.527 0.2687 0.11366 0.5684 0.16533 0.8164 0.16533 1.1057 0 1.984-0.62 1.984-1.7257 0-0.36167-0.1757-0.70268-0.372-0.91968h1.2297v-0.80601h-2.077c-0.2274-0.0827-0.4754-0.124-0.7647-0.124-1.0954 0-2.0357 0.69234-2.0357 1.8187 0 0.59934 0.279 1.0437 0.6303 1.302v0.0413c-0.372 0.25834-0.5993 0.62001-0.5993 0.95068 0 0.42367 0.248 0.68201 0.5167 0.83701v0.0413c-0.5374 0.29967-0.8164 0.68201-0.8164 1.0954 0 0.88867 0.8784 1.3744 2.3147 1.3744zm-0.01-4.5467c-0.5787 0-1.0644-0.41334-1.0644-1.0953 0-0.66134 0.4857-1.0954 1.0644-1.0954s1.054 0.43401 1.054 1.0954c0 0.682-0.4753 1.0953-1.054 1.0953zm0.1136 3.8337c-1.0023 0-1.5603-0.29967-1.5603-0.78534 0-0.25834 0.155-0.51668 0.5787-0.75434 0.2066 0.062 0.4546 0.0827 0.7646 0.0827h0.8991c0.713 0 1.0746 0.11367 1.0746 0.55801 0 0.465-0.682 0.89901-1.7567 0.89901z"/>
        <path d="m2172.2 281.32c0.7751 0 1.4467-0.25834 1.9634-0.59934l-0.3617-0.65101c-0.4546 0.279-0.9093 0.44434-1.4673 0.44434-0.992 0-1.736-0.50634-1.8497-1.55h3.844c0.021-0.13433 0.041-0.341 0.041-0.558 0-1.4054-0.837-2.387-2.3251-2.387-1.3433 0-2.5833 1.0024-2.5833 2.6454 0 1.6844 1.209 2.6557 2.7383 2.6557zm-0.124-4.495c0.7854 0 1.3021 0.465 1.3744 1.3847h-2.945c0.155-0.89901 0.806-1.3847 1.5706-1.3847z"/>
        <path d="m2177.3 283.41c1.209-0.42367 1.9013-1.2917 1.9013-2.5317 0-0.88868-0.3513-1.4364-1.0126-1.4364-0.496 0-0.9094 0.31-0.9094 0.85768 0 0.558 0.403 0.84734 0.8887 0.84734 0.052 0 0.1137 0 0.1653-0.0103-0.021 0.76468-0.4546 1.2814-1.3123 1.643z"/>
       </g>
       <g fill="#a2ff94" stroke-width=".26458px">
        <path d="m2189.9 281.32c0.6923 0 1.395-0.36167 1.9323-0.77501h0.031l0.083 0.65101h0.837v-3.038c0-1.333-0.713-2.139-2.108-2.139-0.8784 0-1.7154 0.37201-2.2734 0.71301l0.3823 0.69234c0.496-0.28934 1.0954-0.56834 1.7154-0.56834 0.899 0 1.2297 0.50634 1.2607 1.1264-2.5421 0.19633-3.5651 0.744-3.5651 1.8807 0 0.88868 0.7337 1.457 1.7051 1.457zm0.2893-0.81635c-0.5477 0-1.0024-0.20666-1.0024-0.713 0-0.60968 0.5891-1.0024 2.5731-1.1574v1.1987c-0.5167 0.42367-1.0334 0.67167-1.5707 0.67167z"/>
        <path d="m2194.5 281.2h1.023v-3.4824c0.5166-0.53734 0.899-0.80601 1.4363-0.80601 0.7647 0 1.054 0.41333 1.054 1.2917v2.9967h1.023v-3.131c0-1.3123-0.5373-2.046-1.7153-2.046-0.7853 0-1.3537 0.41334-1.86 0.94034h-0.041l-0.083-0.81634h-0.837z"/>
        <path d="m2202.5 281.32c0.5993 0 1.178-0.34101 1.581-0.74401h0.031l0.083 0.62001h0.837v-7.3264h-1.023v1.8807l0.052 0.89901h-0.031c-0.4133-0.403-0.8576-0.63034-1.4467-0.63034-1.1676 0-2.263 1.0127-2.263 2.6557 0 1.674 0.868 2.6454 2.1804 2.6454zm0.2376-0.84735c-0.8576 0-1.364-0.651-1.364-1.8084 0-1.0953 0.651-1.7877 1.4364-1.7877 0.403 0 0.7957 0.13433 1.1987 0.51667v2.3974c-0.3927 0.45467-0.8164 0.682-1.2711 0.682z"/>
       </g>
       <g fill="#fff">
        <path d="m2213.1 281.2h1.023v-3.4824c0.5166-0.53734 0.899-0.80601 1.4363-0.80601 0.7647 0 1.054 0.41333 1.054 1.2917v2.9967h1.023v-3.131c0-1.3123-0.5373-2.046-1.7153-2.046-0.775 0-1.3537 0.41334-1.829 0.93001h-0.031l0.062-1.1367v-1.9427h-1.023z"/>
        <path d="m2221.8 281.32c0.775 0 1.4466-0.25834 1.9633-0.59934l-0.3617-0.65101c-0.4546 0.279-0.9093 0.44434-1.4673 0.44434-0.992 0-1.736-0.50634-1.8497-1.55h3.8441c0.021-0.13433 0.041-0.341 0.041-0.558 0-1.4054-0.837-2.387-2.325-2.387-1.3434 0-2.5834 1.0024-2.5834 2.6454 0 1.6844 1.209 2.6557 2.7384 2.6557zm-0.124-4.495c0.7853 0 1.302 0.465 1.3743 1.3847h-2.945c0.155-0.89901 0.806-1.3847 1.5707-1.3847z"/>
        <path d="m2227.1 281.32c0.6924 0 1.395-0.36167 1.9324-0.77501h0.031l0.083 0.65101h0.837v-3.038c0-1.333-0.713-2.139-2.108-2.139-0.8783 0-1.7153 0.37201-2.2733 0.71301l0.3823 0.69234c0.496-0.28934 1.0954-0.56834 1.7154-0.56834 0.899 0 1.2296 0.50634 1.2606 1.1264-2.542 0.19633-3.565 0.744-3.565 1.8807 0 0.88868 0.7337 1.457 1.705 1.457zm0.2894-0.81635c-0.5477 0-1.0024-0.20666-1.0024-0.713 0-0.60968 0.589-1.0024 2.573-1.1574v1.1987c-0.5166 0.42367-1.0333 0.67167-1.5706 0.67167z"/>
        <path d="m2234.9 281.32c0.5683 0 0.9093-0.10334 1.395-0.28934l-0.248-0.76467c-0.341 0.14466-0.6303 0.217-0.9093 0.217-0.558 0-0.9507-0.28934-0.9507-0.99201v-5.6214h-2.6764v0.81634h1.6534v4.743c0 1.2193 0.6097 1.891 1.736 1.891z"/>
        <path d="m2241 281.32c0.651 0 1.147-0.13434 1.6017-0.28934l-0.2067-0.75434c-0.3513 0.13433-0.713 0.217-1.1573 0.217-0.9197 0-1.2193-0.42367-1.2193-1.2917v-2.232h2.387v-0.82668h-2.387v-1.6017h-0.8474l-0.1343 1.6017-1.426 0.0517v0.77501h1.3846v2.232c0 1.2607 0.5064 2.1184 2.0047 2.1184z"/>
        <path d="m2244.1 281.2h1.023v-3.4824c0.5167-0.53734 0.899-0.80601 1.4364-0.80601 0.7646 0 1.054 0.41333 1.054 1.2917v2.9967h1.023v-3.131c0-1.3123-0.5374-2.046-1.7154-2.046-0.775 0-1.3537 0.41334-1.829 0.93001h-0.031l0.062-1.1367v-1.9427h-1.023z"/>
       </g>
       <g fill="#a2ff94" stroke-width=".26458px">
        <path d="m2258.3 281.32c0.5994 0 1.178-0.34101 1.581-0.74401h0.031l0.083 0.62001h0.837v-7.3264h-1.023v1.8807l0.052 0.89901h-0.031c-0.4134-0.403-0.8577-0.63034-1.4467-0.63034-1.1677 0-2.263 1.0127-2.263 2.6557 0 1.674 0.868 2.6454 2.1803 2.6454zm0.2377-0.84735c-0.8577 0-1.364-0.651-1.364-1.8084 0-1.0953 0.651-1.7877 1.4363-1.7877 0.403 0 0.7957 0.13433 1.1987 0.51667v2.3974c-0.3927 0.45467-0.8163 0.682-1.271 0.682z"/>
        <path d="m2264.2 281.32c0.6923 0 1.395-0.36167 1.9323-0.77501h0.031l0.083 0.65101h0.837v-3.038c0-1.333-0.713-2.139-2.108-2.139-0.8784 0-1.7154 0.37201-2.2734 0.71301l0.3824 0.69234c0.496-0.28934 1.0953-0.56834 1.7153-0.56834 0.899 0 1.2297 0.50634 1.2607 1.1264-2.542 0.19633-3.565 0.744-3.565 1.8807 0 0.88868 0.7336 1.457 1.705 1.457zm0.2893-0.81635c-0.5477 0-1.0023-0.20666-1.0023-0.713 0-0.60968 0.589-1.0024 2.573-1.1574v1.1987c-0.5167 0.42367-1.0333 0.67167-1.5707 0.67167z"/>
        <path d="m2272 281.32c0.651 0 1.147-0.13434 1.6016-0.28934l-0.2066-0.75434c-0.3514 0.13433-0.713 0.217-1.1574 0.217-0.9196 0-1.2193-0.42367-1.2193-1.2917v-2.232h2.387v-0.82668h-2.387v-1.6017h-0.8474l-0.1343 1.6017-1.426 0.0517v0.77501h1.3847v2.232c0 1.2607 0.5063 2.1184 2.0047 2.1184z"/>
        <path d="m2276.6 281.32c0.6924 0 1.3951-0.36167 1.9324-0.77501h0.031l0.083 0.65101h0.837v-3.038c0-1.333-0.713-2.139-2.1081-2.139-0.8783 0-1.7153 0.37201-2.2733 0.71301l0.3823 0.69234c0.496-0.28934 1.0954-0.56834 1.7154-0.56834 0.899 0 1.2297 0.50634 1.2607 1.1264-2.5421 0.19633-3.5651 0.744-3.5651 1.8807 0 0.88868 0.7337 1.457 1.705 1.457zm0.2894-0.81635c-0.5477 0-1.0024-0.20666-1.0024-0.713 0-0.60968 0.589-1.0024 2.5731-1.1574v1.1987c-0.5167 0.42367-1.0334 0.67167-1.5707 0.67167z"/>
        <path d="m2289 281.2h1.0127v-4.2264h2.015v-0.82668h-2.015v-0.372c0-0.76468 0.3513-1.209 1.1883-1.209 0.4237 0 0.7544 0.062 1.1367 0.22733l0.2273-0.75434c-0.465-0.186-0.961-0.28934-1.4776-0.28934-1.4364 0-2.0874 0.83701-2.0874 2.046v0.35133l-1.4157 0.0517v0.77501h1.4157z"/>
        <path d="m2295.8 281.32c1.3227 0 2.5214-0.97135 2.5214-2.6454 0-1.6844-1.1987-2.6557-2.5214-2.6557s-2.5214 0.97134-2.5214 2.6557c0 1.674 1.1987 2.6454 2.5214 2.6454zm0-0.83701c-0.899 0-1.4673-0.72334-1.4673-1.8084 0-1.085 0.5683-1.8084 1.4673-1.8084s1.4674 0.72334 1.4674 1.8084c0 1.085-0.5684 1.8084-1.4674 1.8084z"/>
        <path d="m2300.4 281.2h1.023v-2.8727c0.558-1.0127 1.2607-1.3847 1.984-1.3847 0.3824 0 0.5787 0.0517 0.9197 0.16533l0.2274-0.87834c-0.31-0.14467-0.5994-0.20667-0.9921-0.20667-0.899 0-1.6843 0.48567-2.201 1.302h-0.031l-0.083-1.178h-0.8474z"/>
        <path d="m2132.7 291.18 3.8957-2.604v-0.74401l-3.8957-2.604v0.96101l3.0174 1.9944v0.0413l-3.0174 1.9944z"/>
        <path d="m2147.5 291.75c0.868 0 1.6121-0.36167 2.0461-0.79568v-2.914h-2.2011v0.84735h1.2504v1.612c-0.2274 0.21701-0.62 0.35134-1.0334 0.35134-1.271 0-1.9736-1.0023-1.9736-2.6247 0-1.6017 0.7956-2.5937 1.9633-2.5937 0.62 0 1.0023 0.24801 1.3227 0.58901l0.5787-0.65101c-0.403-0.41334-1.0024-0.83701-1.9014-0.83701-1.7463 0-3.0277 1.3124-3.0277 3.5237 0 2.2217 1.2607 3.4927 2.976 3.4927z"/>
        <path d="m2153.4 291.63h1.023v-5.053h-3.2861v0.82667h2.2631zm0.4236-6.0347c0.434 0 0.7647-0.28934 0.7647-0.73368 0-0.434-0.3307-0.73367-0.7647-0.73367s-0.7646 0.29967-0.7646 0.73367c0 0.44434 0.3306 0.73368 0.7646 0.73368z"/>
        <path d="m2160.5 291.75c0.651 0 1.147-0.13434 1.6016-0.28934l-0.2066-0.75434c-0.3514 0.13434-0.713 0.217-1.1574 0.217-0.9196 0-1.2193-0.42367-1.2193-1.2917v-2.232h2.387v-0.82667h-2.387v-1.6017h-0.8474l-0.1343 1.6017-1.426 0.0517v0.77501h1.3847v2.232c0 1.2607 0.5063 2.1184 2.0047 2.1184z"/>
        <path d="m2163.4 291.63h1.0437v-3.0897h2.5627v3.0897h1.0436v-6.7684h-1.0436v2.7797h-2.5627v-2.7797h-1.0437z"/>
        <path d="m2171.3 291.75c0.7647 0 1.3331-0.39267 1.8291-0.96101h0.041l0.083 0.83701h0.837v-5.053h-1.023v3.4617c-0.496 0.59934-0.8887 0.83701-1.4157 0.83701-0.7647 0-1.054-0.41334-1.054-1.302v-2.9967h-1.023v3.131c0 1.3227 0.5373 2.046 1.7256 2.046z"/>
        <path d="m2178.4 291.75c1.178 0 2.263-1.0023 2.263-2.728 0-1.5604-0.7543-2.573-2.0873-2.573-0.5684 0-1.178 0.28934-1.612 0.72335h-0.031l0.041-0.93001v-1.9427h-1.023v7.3264h0.806l0.093-0.55801h0.031c0.4547 0.43401 1.0333 0.68201 1.519 0.68201zm-0.1963-0.84734c-0.3307 0-0.806-0.14467-1.2297-0.52701v-2.387c0.4547-0.47534 0.9197-0.68201 1.333-0.68201 0.9093 0 1.302 0.67167 1.302 1.7257 0 1.1987-0.6097 1.8704-1.4053 1.8704z"/>
        <path d="m2188.5 291.63h4.3608v-0.86801h-3.3274v-2.232h2.728v-0.86801h-2.728v-1.9324h3.224v-0.86801h-4.2574z"/>
        <path d="m2194.5 291.63h1.023v-3.4824c0.5166-0.53734 0.899-0.80601 1.4363-0.80601 0.7647 0 1.054 0.41334 1.054 1.2917v2.9967h1.023v-3.131c0-1.3124-0.5373-2.046-1.7153-2.046-0.7853 0-1.3537 0.41334-1.86 0.94035h-0.041l-0.083-0.81634h-0.837z"/>
        <path d="m2203.8 291.75c0.651 0 1.147-0.13434 1.6016-0.28934l-0.2066-0.75434c-0.3514 0.13434-0.713 0.217-1.1574 0.217-0.9196 0-1.2193-0.42367-1.2193-1.2917v-2.232h2.387v-0.82667h-2.387v-1.6017h-0.8474l-0.1343 1.6017-1.426 0.0517v0.77501h1.3847v2.232c0 1.2607 0.5063 2.1184 2.0047 2.1184z"/>
        <path d="m2209.4 291.75c0.775 0 1.4467-0.25834 1.9634-0.59934l-0.3617-0.65101c-0.4547 0.27901-0.9093 0.44434-1.4674 0.44434-0.992 0-1.736-0.50634-1.8496-1.55h3.844c0.021-0.13434 0.041-0.34101 0.041-0.55801 0-1.4054-0.837-2.387-2.325-2.387-1.3433 0-2.5833 1.0024-2.5833 2.6454 0 1.6844 1.209 2.6557 2.7383 2.6557zm-0.124-4.495c0.7854 0 1.302 0.46501 1.3744 1.3847h-2.9451c0.155-0.89901 0.806-1.3847 1.5707-1.3847z"/>
        <path d="m2213.6 291.63h1.023v-2.8727c0.558-1.0127 1.2607-1.3847 1.9841-1.3847 0.3823 0 0.5786 0.0517 0.9196 0.16534l0.2274-0.87835c-0.31-0.14466-0.5994-0.20667-0.992-0.20667-0.8991 0-1.6844 0.48568-2.2011 1.302h-0.031l-0.083-1.178h-0.8474z"/>
        <path d="m2219.3 293.7h1.023v-1.6534l-0.052-0.90935h0.031c0.4237 0.39267 0.9714 0.62001 1.4364 0.62001 1.1883 0 2.2733-1.0023 2.2733-2.728 0-1.5604-0.744-2.573-2.077-2.573-0.5993 0-1.2297 0.31001-1.6844 0.74401h-0.031l-0.083-0.62h-0.837zm2.2423-2.79c-0.3203 0-0.7956-0.14467-1.2193-0.52701v-2.387c0.4547-0.47534 0.9197-0.68201 1.333-0.68201 0.9093 0 1.302 0.67167 1.302 1.7257 0 1.1987-0.6097 1.8704-1.4157 1.8704z"/>
        <path d="m2226 291.63h1.023v-2.8727c0.558-1.0127 1.2607-1.3847 1.984-1.3847 0.3823 0 0.5787 0.0517 0.9197 0.16534l0.2273-0.87835c-0.31-0.14466-0.5993-0.20667-0.992-0.20667-0.899 0-1.6843 0.48568-2.201 1.302h-0.031l-0.083-1.178h-0.847z"/>
        <path d="m2233.9 291.63h1.023v-5.053h-3.286v0.82667h2.263zm0.4237-6.0347c0.434 0 0.7647-0.28934 0.7647-0.73368 0-0.434-0.3307-0.73367-0.7647-0.73367s-0.7647 0.29967-0.7647 0.73367c0 0.44434 0.3307 0.73368 0.7647 0.73368z"/>
        <path d="m2240.1 291.75c1.488 0 2.3146-0.69234 2.3146-1.5397 0-0.78534-0.4133-1.209-2.0666-1.5707-0.9817-0.20666-1.3847-0.372-1.3847-0.76467 0-0.35134 0.279-0.64067 1.0437-0.64067 0.62 0 1.1986 0.19633 1.6843 0.51667l0.4753-0.64068c-0.5063-0.341-1.271-0.66134-2.0666-0.66134-1.4054 0-2.1597 0.63034-2.1597 1.4777 0 0.76467 0.6303 1.2193 1.9633 1.4984 1.271 0.26867 1.4777 0.48567 1.4777 0.84734 0 0.38233-0.372 0.69234-1.147 0.69234-0.8784 0-1.5604-0.248-2.1494-0.66134l-0.4546 0.66134c0.6096 0.42367 1.5086 0.78534 2.4697 0.78534z"/>
        <path d="m2246.6 291.75c0.775 0 1.4467-0.25834 1.9633-0.59934l-0.3616-0.65101c-0.4547 0.27901-0.9094 0.44434-1.4674 0.44434-0.992 0-1.736-0.50634-1.8497-1.55h3.8441c0.021-0.13434 0.041-0.34101 0.041-0.55801 0-1.4054-0.837-2.387-2.325-2.387-1.3434 0-2.5834 1.0024-2.5834 2.6454 0 1.6844 1.209 2.6557 2.7384 2.6557zm-0.124-4.495c0.7853 0 1.302 0.46501 1.3743 1.3847h-2.945c0.155-0.89901 0.806-1.3847 1.5707-1.3847z"/>
       </g>
      </g>
     </g>
     <g transform="matrix(-1.6102 -1.5942e-8 1.5942e-8 -1.6102 5795.4 866.36)" stroke-width=".94721">
      <circle transform="scale(-1)" cx="-2232" cy="-283.23" r="7.076" fill="url(#linearGradient24617)" style="paint-order:normal"/>
      <g transform="rotate(-30 2232 283.23)" clip-path="url(#clipPath8941-6)" stroke-width=".94721">
       <path d="m2232 287.23a11.9 4.003 1e-6 0 0 11.9-4.003 11.9 4.003 1e-6 0 0-11.9-4.0029 11.9 4.003 1e-6 0 0-11.9 4.0029 11.9 4.003 1e-6 0 0 11.9 4.003zm0-1.0006a9.7365 3.0022 1e-6 0 1-9.7363-3.0024 9.7365 3.0022 1e-6 0 1 9.7363-3.0017 9.7365 3.0022 1e-6 0 1 9.7369 3.0017 9.7365 3.0022 1e-6 0 1-9.7369 3.0024z" clip-path="none" fill="url(#linearGradient24619)" style="paint-order:normal"/>
      </g>
     </g>
     <g transform="matrix(.99649 0 0 .99649 -276.03 46.171)" clip-path="url(#clipPath9009-2)" stroke-width="1.4242">
      <circle cx="2248.9" cy="243.45" r="17.174" fill="url(#linearGradient24843)" style="paint-order:normal"/>
      <circle cx="2241.5" cy="248.67" r="1.7636" fill="url(#linearGradient24845)" style="paint-order:normal"/>
      <circle cx="2246.1" cy="249.65" r="4.0569" fill="url(#linearGradient24847)" style="paint-order:normal"/>
      <circle cx="2259.5" cy="243.45" r="6.7009" fill="url(#linearGradient24849)" style="paint-order:normal"/>
      <circle cx="2237.3" cy="239.95" r="2.9131" fill="url(#linearGradient24851)" style="paint-order:normal"/>
      <circle cx="2246.4" cy="234.64" r="4.348" fill="url(#linearGradient24853)" style="paint-order:normal"/>
      <circle cx="2256.8" cy="249.98" r="1.7636" fill="url(#linearGradient24855)" style="paint-order:normal"/>
      <circle cx="2237.3" cy="239.95" r="0" fill="url(#linearGradient24857)" style="paint-order:normal"/>
     </g>
     <g transform="matrix(4.7097 0 0 4.7097 -8622.6 -699)" clip-path="url(#clipPath9009-2-8)" stroke-width=".45013">
      <circle cx="2248.9" cy="243.45" r="17.174" fill="url(#linearGradient25213)" style="paint-order:normal"/>
      <circle cx="2245.6" cy="236.05" r="1.7636" fill="url(#linearGradient25215)" style="paint-order:normal"/>
      <circle cx="2244.9" cy="242.69" r="4.0569" fill="url(#linearGradient25217)" style="paint-order:normal"/>
      <circle cx="2245.9" cy="253.93" r="6.7009" fill="url(#linearGradient25219)" style="paint-order:normal"/>
      <circle cx="2237.3" cy="239.95" r="2.9131" fill="url(#linearGradient25221)" style="paint-order:normal"/>
      <circle cx="2255.9" cy="235.55" r="4.348" fill="url(#linearGradient25223)" style="paint-order:normal"/>
      <circle cx="2256.8" cy="249.98" r="1.7636" fill="url(#linearGradient25225)" style="paint-order:normal"/>
      <circle cx="2237.3" cy="239.95" r="0" fill="url(#linearGradient24857)" style="paint-order:normal"/>
     </g>
     <g transform="matrix(.88775 .46032 -.46032 .88775 1065.1 -652.74)">
      <path d="m1368.7 299.25h97.516" fill="none" stroke="#d5d858" stroke-width=".5"/>
      <g fill="#252b32">
       <rect x="1384.2" y="297.13" width="3.6228" height="5.2917" style="paint-order:normal"/>
       <rect x="1394.3" y="297.13" width="1.7519" height="5.2917" style="paint-order:normal"/>
       <rect x="1397.5" y="296.76" width="1.7519" height="5.2917" style="paint-order:normal"/>
       <rect x="1415.3" y="296.29" width="2.2196" height="5.2917" style="paint-order:normal"/>
       <rect x="1426.9" y="297.04" width="1.0035" height="5.2917" style="paint-order:normal"/>
       <rect x="1434.2" y="297.04" width="1.0035" height="5.2917" style="paint-order:normal"/>
       <rect x="1441" y="297.04" width="4.9324" height="5.2917" style="paint-order:normal"/>
       <rect x="1448.4" y="297.04" width="4.9324" height="5.2917" style="paint-order:normal"/>
       <rect x="1455" y="297.04" width="9.6096" height="5.2917" style="paint-order:normal"/>
      </g>
      <path transform="matrix(1.1551 -.3095 .3095 1.1551 -321.07 409.61)" d="m1473.4 297.82 0.3333 1.0656 1.0656 0.33329-1.0656 0.3333-0.3333 1.0656-0.3333-1.0656-1.0656-0.3333 1.0656-0.33329z" fill="#c7ce62" stroke="#c7ce62" stroke-dashoffset="2.168" stroke-linecap="round" stroke-linejoin="round" stroke-width=".41813" style="paint-order:normal"/>
     </g>
    </g>
   </g>
   <g transform="translate(-254)">
    <rect x="2331.5" y="779.52" width="127" height="71.438" fill="#edeae1" style="paint-order:normal"/>
    <g transform="matrix(1.7206 0 0 1.7206 724.13 517.65)" stroke-width=".31461">
     <g transform="translate(43.259 1.8521)">
      <rect transform="rotate(-45)" x="517.34" y="759.32" width="13.985" height="13.985" rx="2" ry="2" fill="#ed5003" style="paint-order:normal"/>
      <g transform="matrix(-.39811 0 0 -.47726 970.03 275.85)" fill="none" stroke-width="1.0956">
       <g transform="matrix(-1 0 0 1 288.4 -.27719)" stroke="#fff">
        <g stroke="#fff"></g>
       </g>
       <g transform="translate(0 -.27719)">
        <path transform="matrix(-.23175 0 0 -.19332 198.67 263.25)" d="m240.21 176.09c-1.4511-0.0361-2.6232 1.4107-2.5508 3.1484v66.91c-0.85243 0.04659-1.7171 0.07813-2.6055 0.07813-0.88711 0-1.7521-0.03169-2.6035-0.07813v-66.91c0.0248-4.0304-5.0307-4.0304-5.0059 0v66.344c-1.9607-0.34563-3.7204-0.81572-5.207-1.3887v-64.955c-5.9e-4 -1.6911-1.1662-3.0475-2.5762-2.998-1.3528 0.0475-2.4291 1.3756-2.4297 2.998v71.338c-0.00361 0.2431 0.02435 0.47612 0.06641 0.70313 0.51996 4.6233 6.1344 8.4172 13.586 9.4688v28.992l-5.5703 7.543c-1.4338 1.9382-0.28202 4.9971 1.8789 4.9902h15.727c2.1563-3e-3 3.2998-3.0562 1.8691-4.9902l-5.5703-7.5449v-28.988c7.4683-1.0528 13.093-4.8615 13.594-9.498 0.03856-0.21828 0.06207-0.44314 0.05859-0.67579v-71.338c-6.4e-4 -1.6901-1.165-3.0461-2.5742-2.998-1.3536 0.0463-2.431 1.3747-2.4316 2.998v64.953c-1.4869 0.57325-3.2461 1.0449-5.207 1.3906v-66.344c0.0704-1.6888-1.037-3.1136-2.4473-3.1484zm-52.721 9.373c-0.56459 0.0173-1.1077 0.26303-1.541 0.69727-8.7003 8.4265-13.207 19.711-13.207 31.047 0 11.336 4.5067 22.611 13.207 31.037 2.6054 2.6234 5.8316-2.1689 3.1426-4.668-7.6719-7.4304-11.344-16.922-11.344-26.369 0-9.4473 3.6718-18.948 11.344-26.379 1.904-1.7784 0.81132-5.4387-1.6016-5.3652zm95.115 0c-2.4078-0.0617-3.4913 3.5904-1.5918 5.3652 7.6719 7.4304 11.344 16.932 11.344 26.379 0 9.4472-3.6718 18.939-11.344 26.369-2.5959 2.5131 0.54864 7.1811 3.1445 4.668 8.7004-8.4265 13.205-19.701 13.205-31.037 0-11.336-4.5047-22.62-13.205-31.047-0.43384-0.43473-0.97771-0.6805-1.543-0.69727-3e-3 -1e-5 -0.00677-1e-5 -0.00977 0zm-85.414 9.4062c-0.56189 0.0194-1.102 0.265-1.5332 0.69727-6.0209 5.8289-9.1953 13.709-9.1953 21.641 0 7.9319 3.1744 15.802 9.1953 21.631 2.6054 2.6238 5.832-2.1689 3.1426-4.668-4.9924-4.8332-7.332-10.92-7.332-16.963 0-6.0426 2.3396-12.139 7.332-16.973 1.9075-1.7813 0.8076-5.4482-1.6094-5.3652zm75.705 0c-2.4068-0.0594-3.4885 3.5911-1.5898 5.3652 4.9924 4.8332 7.332 10.93 7.332 16.973 0 6.0426-2.3396 12.13-7.332 16.963-2.6894 2.499 0.53717 7.2917 3.1426 4.668 6.0209-5.8289 9.1953-13.699 9.1953-21.631 0-7.9319-3.1744-15.812-9.1953-21.641-0.43123-0.43227-0.97131-0.67789-1.5332-0.69727-7e-3 -3e-5 -0.01304-3e-5 -0.01954 0zm-66.637 8.7793c-0.56428 0.014-1.108 0.25629-1.543 0.6875-3.518 3.4057-5.4356 8.1152-5.4356 12.871 0 4.7559 1.9176 9.4557 5.4356 12.861 2.6054 2.6234 5.8316-2.1689 3.1426-4.668-2.4895-2.41-3.5723-5.3269-3.5723-8.1934-4e-5 -2.8665 1.0827-5.7931 3.5723-8.2031 1.8853-1.781 0.80018-5.4139-1.5996-5.3555zm57.588 0c-2.4008-0.0608-3.4877 3.5738-1.6016 5.3555 2.4895 2.41 3.5743 5.3366 3.5742 8.2031 0 2.8665-1.0847 5.7833-3.5742 8.1934-2.5959 2.5131 0.54865 7.1811 3.1445 4.668 3.518-3.4056 5.4355-8.1054 5.4355-12.861 0-4.7559-1.9176-9.4654-5.4355-12.871-0.43493-0.43121-0.97869-0.67349-1.543-0.6875z" color="#000000" color-rendering="auto" dominant-baseline="auto" fill="#edeae1" fill-rule="evenodd" image-rendering="auto" shape-rendering="auto" solid-color="#000000" style="font-feature-settings:normal;font-variant-alternates:normal;font-variant-caps:normal;font-variant-ligatures:normal;font-variant-numeric:normal;font-variant-position:normal;isolation:auto;mix-blend-mode:normal;shape-padding:0;text-decoration-color:#000000;text-decoration-line:none;text-decoration-style:solid;text-indent:0;text-orientation:mixed;text-transform:none;white-space:normal"/>
       </g>
       <g transform="translate(0 -.13859)"></g>
      </g>
     </g>
     <g transform="matrix(.95357 0 0 .95357 881.67 66.939)">
      <g fill="#3a342a" stroke-width=".35231px" style="font-feature-settings:normal;font-variant-caps:normal;font-variant-ligatures:normal;font-variant-numeric:normal" aria-label="hubble">
       <path d="m95.244 112.91c-0.0088 0-0.02646 0-0.05292-9e-3s-0.07056-0.0176-0.13229-0.0264l-0.25576-0.0441v-2.0108c0-0.25576-0.0441-0.47625-0.10583-0.68792-0.07056-0.21166-0.16757-0.39687-0.29104-0.54681-0.13229-0.14993-0.28222-0.2734-0.47625-0.35278-0.19403-0.0794-0.4057-0.12347-0.65264-0.12347-0.28222 0-0.53799 0.0529-0.74966 0.15875-0.21167 0.10584-0.4057 0.23813-0.58209 0.4057v-2.5224h-1.7551v0.52035c0 0.14994 0.07056 0.23813 0.22049 0.27341 0.0088 0 0.02646 9e-3 0.05292 9e-3s0.07056 0.0176 0.13229 0.0265l0.26458 0.0441v4.8066l-0.26458 0.0441c-0.06174 9e-3 -0.10583 0.0264-0.13229 0.0264-0.02646 0-0.0441 9e-3 -0.05292 9e-3 -0.14993 0.0353-0.22049 0.12348-0.22049 0.27341v0.52035h2.4254v-0.52035c0-0.14993-0.07056-0.23813-0.22049-0.27341-0.0088 0-0.02646 0-0.05292-9e-3 -0.02646 0-0.07056-0.0176-0.13229-0.0264l-0.26458-0.0441v-2.3989c0.14993-0.14994 0.29986-0.25577 0.46743-0.34396 0.16757-0.0882 0.34396-0.1323 0.52917-0.1323 0.25577 0 0.4498 0.0794 0.57327 0.22931 0.13229 0.14993 0.19403 0.37042 0.19403 0.64382v2.8752h1.7551v-0.52035c0-0.14993-0.07056-0.23813-0.22049-0.27341z" style="font-feature-settings:normal;font-variant-caps:normal;font-variant-ligatures:normal;font-variant-numeric:normal"/>
       <path d="m100.63 112.91c-0.0706-9e-3 -0.0617-9e-3 -0.44097-0.0794v-3.6513h-1.7551v0.52035c0 0.14993 0.07056 0.23812 0.22049 0.2734 0.07056 9e-3 0.07056 0.0176 0.44097 0.0794v2.3989c-0.14993 0.14993-0.29986 0.26459-0.46743 0.34396-0.16757 0.0794-0.34396 0.12347-0.52917 0.12347-0.25577 0-0.4498-0.0705-0.57327-0.22048-0.12347-0.14994-0.19403-0.37042-0.19403-0.64383v-2.8752h-1.7551v0.52035c0 0.14993 0.07056 0.23812 0.22049 0.2734 0.07056 9e-3 0.07056 9e-3 0.4498 0.0794v2.002c0 0.25577 0.03528 0.48508 0.09701 0.69674 0.07056 0.21167 0.15875 0.38806 0.29104 0.53799 0.13229 0.14993 0.29104 0.28223 0.47625 0.3616 0.19403 0.0794 0.41452 0.12347 0.66146 0.12347 0.14993 0 0.28222-0.0176 0.41452-0.0441 0.13229-0.0353 0.25577-0.0794 0.37042-0.1323 0.11465-0.0529 0.22049-0.11465 0.3175-0.19402 0.09701-0.0794 0.19403-0.16757 0.29104-0.26459l0.07938 0.3616c0.0441 0.13229 0.13229 0.20285 0.2734 0.20285h1.3317v-0.52035c0-0.14993-0.0706-0.23813-0.22049-0.27341z" style="font-feature-settings:normal;font-variant-caps:normal;font-variant-ligatures:normal;font-variant-numeric:normal"/>
       <path d="m105.74 110.43c-0.0794-0.28223-0.19403-0.52917-0.34396-0.7232s-0.32632-0.34396-0.52917-0.44098c-0.20285-0.10583-0.43216-0.14993-0.6791-0.14993-0.29986 0-0.56445 0.0529-0.79376 0.16757-0.2293 0.11466-0.43215 0.26459-0.60854 0.45862v-2.5841h-1.7904v0.52035c0 0.14994 0.0706 0.23813 0.22049 0.27341 9e-3 0 0.0353 9e-3 0.0617 9e-3 0.0265 0 0.0794 0.0176 0.14994 0.0265l0.2734 0.0441v5.4946c0.82903 0.16757 1.561 0.24695 2.2137 0.24695 0.29987 0 0.56445-0.0529 0.80258-0.17639 0.23812-0.11466 0.44979-0.28223 0.61736-0.4939 0.16757-0.21166 0.29987-0.45861 0.38806-0.74965 0.0882-0.29105 0.14111-0.60855 0.14111-0.94369 0-0.37042-0.0441-0.69674-0.12347-0.97896zm-1.076 1.6669c-0.0529 0.19403-0.13229 0.35278-0.22049 0.47625-0.0882 0.12348-0.20284 0.22049-0.33514 0.28223-0.13229 0.0617-0.2734 0.0882-0.44097 0.0882-0.29105 0-0.59091-0.0265-0.88195-0.0794v-2.3548c0.14111-0.17639 0.29104-0.30868 0.44979-0.40569 0.15875-0.097 0.35278-0.14112 0.58209-0.14112 0.14111 0 0.26458 0.0265 0.37924 0.0794 0.11465 0.0529 0.21167 0.13229 0.29104 0.24694 0.0794 0.11466 0.14111 0.26459 0.18521 0.4498s0.0617 0.4057 0.0617 0.67028c0 0.26459-0.0176 0.49389-0.0706 0.68792z" style="font-feature-settings:normal;font-variant-caps:normal;font-variant-ligatures:normal;font-variant-numeric:normal"/>
       <path d="m110.7 110.43c-0.0794-0.28223-0.19403-0.52917-0.34396-0.7232-0.14994-0.19403-0.32633-0.34396-0.52917-0.44098-0.20285-0.10583-0.43216-0.14993-0.67911-0.14993-0.29986 0-0.56444 0.0529-0.79375 0.16757-0.22931 0.11466-0.43216 0.26459-0.60855 0.45862v-2.5841h-1.7904v0.52035c0 0.14994 0.0705 0.23813 0.22048 0.27341 9e-3 0 0.0353 9e-3 0.0617 9e-3 0.0265 0 0.0794 0.0176 0.14993 0.0265l0.27341 0.0441v5.4946c0.82903 0.16757 1.561 0.24695 2.2137 0.24695 0.29986 0 0.56445-0.0529 0.80257-0.17639 0.23813-0.11466 0.4498-0.28223 0.61737-0.4939 0.16757-0.21166 0.29986-0.45861 0.38806-0.74965 0.0882-0.29105 0.14111-0.60855 0.14111-0.94369 0-0.37042-0.0441-0.69674-0.12347-0.97896zm-1.076 1.6669c-0.0529 0.19403-0.1323 0.35278-0.22049 0.47625-0.0882 0.12348-0.20285 0.22049-0.33514 0.28223-0.13229 0.0617-0.27341 0.0882-0.44098 0.0882-0.29104 0-0.5909-0.0265-0.88195-0.0794v-2.3548c0.14112-0.17639 0.29105-0.30868 0.4498-0.40569 0.15875-0.097 0.35278-0.14112 0.58209-0.14112 0.14111 0 0.26458 0.0265 0.37923 0.0794 0.11466 0.0529 0.21167 0.13229 0.29105 0.24694 0.0794 0.11466 0.14111 0.26459 0.18521 0.4498s0.0617 0.4057 0.0617 0.67028c0 0.26459-0.0176 0.49389-0.0705 0.68792z" style="font-feature-settings:normal;font-variant-caps:normal;font-variant-ligatures:normal;font-variant-numeric:normal"/>
       <path d="m113.32 112.91c-9e-3 0-0.0264 0-0.0529-9e-3s-0.0706-0.0176-0.1323-0.0264l-0.26458-0.0441v-5.6798h-1.7551v0.52035c0 0.14994 0.0706 0.23813 0.22049 0.27341 9e-3 0 0.0265 9e-3 0.0529 9e-3 0.0265 0 0.0706 0.0176 0.1323 0.0265l0.26458 0.0441v4.8066l-0.26458 0.0441c-0.0617 9e-3 -0.10584 0.0176-0.1323 0.0264-0.0264 9e-3 -0.0441 9e-3 -0.0529 9e-3 -0.14993 0.0353-0.22049 0.12348-0.22049 0.27341v0.52035h2.4254v-0.52035c0-0.14993-0.0705-0.23813-0.22049-0.27341z" style="font-feature-settings:normal;font-variant-caps:normal;font-variant-ligatures:normal;font-variant-numeric:normal"/>
       <path d="m116 109.11c-0.33514 0-0.65264 0.0617-0.91722 0.17639-0.26459 0.11466-0.4939 0.27341-0.6791 0.47625-0.18521 0.20285-0.33515 0.44098-0.43216 0.71438-0.097 0.27341-0.14993 0.55563-0.14993 0.86431 0 0.39688 0.0529 0.74966 0.16757 1.0495 0.11465 0.29987 0.2734 0.55563 0.47625 0.75848s0.43216 0.3616 0.70556 0.46743c0.27341 0.10584 0.55563 0.14994 0.87313 0.14994 0.15875 0 0.32632-9e-3 0.49389-0.0353 0.16757-0.0265 0.33514-0.0617 0.50271-0.11466 0.15876-0.0529 0.31751-0.13229 0.46744-0.2293 0.14993-0.097 0.28222-0.22049 0.40569-0.3616l-0.3175-0.39688c-0.0265-0.0353-0.0441-0.0529-0.0794-0.0706-0.0353-0.0176-0.0794-0.0265-0.12348-0.0265-0.0705 0-0.13229 0.0176-0.20284 0.0617-0.0706 0.0441-0.15875 0.0794-0.25577 0.13229-0.097 0.0529-0.20285 0.097-0.33514 0.14112-0.12347 0.0441-0.2734 0.0617-0.44979 0.0617-0.3616 0-0.64383-0.10583-0.86431-0.32632-0.22049-0.22049-0.34397-0.55563-0.37924-1.0231h2.7958c0.0529 0 0.0882 0 0.12347-0.0176 0.0353-0.0176 0.0617-0.0353 0.0794-0.0705 0.0176-0.0265 0.0264-0.0706 0.0353-0.12348 9e-3 -0.0529 0.0176-0.13229 0.0176-0.21167 0-0.32632-0.0529-0.60854-0.14993-0.86431-0.097-0.25576-0.22931-0.46743-0.4057-0.64382s-0.37923-0.3175-0.61736-0.4057-0.50271-0.13229-0.78494-0.13229zm0.0176 0.77612c0.15875 0 0.29987 0.0353 0.42334 0.0882s0.22049 0.12348 0.29986 0.22049c0.0794 0.097 0.14111 0.20285 0.17639 0.32632 0.0353 0.12347 0.0617 0.25577 0.0617 0.39688h-2.0461c0.0529-0.32632 0.16757-0.58209 0.34396-0.75848s0.42333-0.2734 0.74083-0.2734z" style="font-feature-settings:normal;font-variant-caps:normal;font-variant-ligatures:normal;font-variant-numeric:normal"/>
      </g>
      <g fill="#747370" stroke-width=".35231px" style="font-feature-settings:normal;font-variant-caps:normal;font-variant-ligatures:normal;font-variant-numeric:normal" aria-label="enterprise">
       <path d="m91.882 116.87h-1.7025l-0.03405 0.28091h1.7025z" style="font-feature-settings:normal;font-variant-caps:normal;font-variant-ligatures:normal;font-variant-numeric:normal"/>
       <path d="m94.545 116.87h-1.7025l-0.03405 0.28091h1.7025z" style="font-feature-settings:normal;font-variant-caps:normal;font-variant-ligatures:normal;font-variant-numeric:normal"/>
       <path d="m96.975 117.87-0.09364-0.11491c-0.02128-0.0255-0.04682-0.0341-0.07236-0.0341-0.02128 0-0.04682 9e-3 -0.0681 0.0213-0.05533 0.034-0.10641 0.0766-0.16174 0.11917-0.10641 0.0809-0.24686 0.14046-0.43414 0.14046-0.34901 0-0.49798-0.22133-0.49798-0.58311v-0.0936c0.28091-0.0298 0.51075-0.0638 0.68951-0.11066 0.17876-0.0468 0.31922-0.10215 0.42137-0.16599 0.17025-0.10215 0.26814-0.2341 0.26814-0.47245 0-0.0511-0.01277-0.1064-0.03831-0.16599-0.08513-0.20005-0.29794-0.32348-0.59162-0.32348-0.38732 0-0.64695 0.19153-0.8172 0.41712-0.17025 0.22558-0.30219 0.53628-0.30219 0.9236 0 0.13195 0.01703 0.25538 0.05533 0.36179 0.10215 0.30219 0.33624 0.51075 0.73633 0.51075 0.43839 0 0.68526-0.20005 0.90658-0.42989zm-0.28942-1.2769c0 0.14471-0.06384 0.21281-0.17451 0.27665-0.07236 0.0383-0.17025 0.0766-0.30219 0.11067-0.13194 0.034-0.31071 0.0681-0.52778 0.0936 0.02128-0.10215 0.05533-0.19578 0.09789-0.28091 0.10215-0.22132 0.28517-0.43414 0.59588-0.43414 0.16599 0 0.31071 0.0766 0.31071 0.2341z" style="font-feature-settings:normal;font-variant-caps:normal;font-variant-ligatures:normal;font-variant-numeric:normal"/>
       <path d="m99.879 118.01c-0.02554-4e-3 -0.10215-0.0255-0.23835-0.0511l0.13194-1.0641c0.05959-0.49372-0.15323-0.8172-0.62141-0.8172-0.26814 0-0.51926 0.11918-0.75761 0.34901v-0.23409c-0.0085-0.0511-0.03831-0.0809-0.09364-0.0809h-0.53203l-0.02128 0.18302c-0.0043 0.0426 0.0085 0.0724 0.05108 0.0809l0.23835 0.0468-0.22558 1.8472h0.37881l0.19579-1.5876c0.2043-0.20005 0.4086-0.3022 0.61716-0.3022 0.30219 0 0.43414 0.17451 0.39158 0.51927l-0.17025 1.3705h0.68951l0.02128-0.18302c0.0043-0.0426-0.01277-0.0681-0.05533-0.0766z" style="font-feature-settings:normal;font-variant-caps:normal;font-variant-ligatures:normal;font-variant-numeric:normal"/>
       <path d="m101.27 118.3c0.0979 0 0.19153-0.017 0.28943-0.0511s0.18302-0.0851 0.25537-0.14472l-0.0894-0.17876c-0.0128-0.0255-0.0255-0.0383-0.0468-0.0383-0.0128 0-0.0255 9e-3 -0.0426 0.017l-0.0596 0.0341c-0.0213 0.0128-0.0511 0.0255-0.0809 0.034-0.0298 9e-3 -0.0638 0.017-0.10215 0.017-0.0681 0-0.12343-0.0213-0.16173-0.0639s-0.0553-0.11492-0.0426-0.2043l0.15748-1.2939h0.61716l0.034-0.2724h-0.61716l0.0936-0.74485h-0.19153c-0.0255 0-0.0468 9e-3 -0.0638 0.0213-0.017 0.0128-0.0298 0.0298-0.034 0.0511l-0.17025 0.66398-0.35753 0.0468-0.017 0.14896c-4e-3 0.0298 0 0.0511 0.0128 0.0639s0.034 0.0213 0.0553 0.0213h0.25963l-0.16174 1.3194c-0.0213 0.17876 9e-3 0.31496 0.0894 0.4086 0.0809 0.0936 0.2043 0.14471 0.37455 0.14471z" style="font-feature-settings:normal;font-variant-caps:normal;font-variant-ligatures:normal;font-variant-numeric:normal"/>
       <path d="m104.18 117.87-0.0936-0.11491c-0.0213-0.0255-0.0468-0.0341-0.0724-0.0341-0.0213 0-0.0468 9e-3 -0.0681 0.0213-0.0553 0.034-0.10641 0.0766-0.16174 0.11917-0.10641 0.0809-0.24686 0.14046-0.43414 0.14046-0.34901 0-0.49798-0.22133-0.49798-0.58311v-0.0936c0.28091-0.0298 0.51075-0.0638 0.68951-0.11066 0.17876-0.0468 0.31922-0.10215 0.42137-0.16599 0.17025-0.10215 0.26815-0.2341 0.26815-0.47245 0-0.0511-0.0128-0.1064-0.0383-0.16599-0.0851-0.20005-0.29794-0.32348-0.59162-0.32348-0.38732 0-0.64695 0.19153-0.8172 0.41712-0.17025 0.22558-0.3022 0.53628-0.3022 0.9236 0 0.13195 0.017 0.25538 0.0553 0.36179 0.10215 0.30219 0.33624 0.51075 0.73633 0.51075 0.43839 0 0.68525-0.20005 0.90658-0.42989zm-0.28943-1.2769c0 0.14471-0.0638 0.21281-0.1745 0.27665-0.0724 0.0383-0.17025 0.0766-0.3022 0.11067-0.13194 0.034-0.3107 0.0681-0.52777 0.0936 0.0213-0.10215 0.0553-0.19578 0.0979-0.28091 0.10215-0.22132 0.28517-0.43414 0.59588-0.43414 0.16599 0 0.3107 0.0766 0.3107 0.2341z" style="font-feature-settings:normal;font-variant-caps:normal;font-variant-ligatures:normal;font-variant-numeric:normal"/>
       <path d="m105.56 116.11h-0.52352l-0.0213 0.18302c-4e-3 0.0426 9e-3 0.0681 0.0511 0.0766 0.0255 4e-3 0.10641 0.0255 0.23835 0.0511l-0.22558 1.843h0.37881l0.16599-1.3705c0.15749-0.29794 0.36179-0.45117 0.60865-0.45117 0.0724 0 0.13194 9e-3 0.17025 0.0213 0.0383 0.0128 0.0766 0.0213 0.10215 0.0213 0.0255 0 0.0468-0.0213 0.0596-0.0553l0.0851-0.28517c-0.0809-0.0511-0.17451-0.0724-0.28517-0.0724-0.28091 0-0.51926 0.15748-0.71505 0.4767l0.0128-0.33624c0-0.0766-0.0213-0.10215-0.10215-0.10215z" style="font-feature-settings:normal;font-variant-caps:normal;font-variant-ligatures:normal;font-variant-numeric:normal"/>
       <path d="m107.9 116.45-4e-3 -0.25537c-9e-3 -0.0511-0.034-0.0766-0.0894-0.0766h-0.53204l-0.0255 0.17876c-4e-3 0.0426 0.0128 0.0724 0.0553 0.0809l0.23835 0.0468-0.28092 2.2643-0.24686 0.0511c-0.0426 9e-3 -0.0681 0.034-0.0724 0.0766l-0.0255 0.18728h0.99596l0.0213-0.18728c4e-3 -0.0426-0.0128-0.0681-0.0553-0.0766-0.0128-4e-3 -0.0511-0.0128-0.12343-0.0255-0.0724-0.0128-0.11066-0.0255-0.11492-0.0255l0.0809-0.63844c0.13194 0.17025 0.32773 0.25112 0.59162 0.25112s0.49798-0.10641 0.69377-0.32348c0.19153-0.20856 0.30645-0.47244 0.34476-0.79592 0.0426-0.35327 0-0.62993-0.12344-0.82571-0.11917-0.18728-0.30645-0.28092-0.55756-0.28092-0.28092 0-0.53629 0.12769-0.77039 0.37455zm-0.14045 1.3024 0.12768-1.0428c0.19154-0.21707 0.40009-0.32774 0.62142-0.32774 0.36604 0 0.515 0.26389 0.45116 0.79592-0.0341 0.26389-0.11492 0.46819-0.23835 0.61291-0.12343 0.14471-0.29368 0.21706-0.49798 0.21706s-0.35753-0.0851-0.46393-0.25537z" style="font-feature-settings:normal;font-variant-caps:normal;font-variant-ligatures:normal;font-variant-numeric:normal"/>
       <path d="m110.66 116.11h-0.52352l-0.0213 0.18302c-4e-3 0.0426 9e-3 0.0681 0.0511 0.0766 0.0255 4e-3 0.10641 0.0255 0.23835 0.0511l-0.22558 1.843h0.37881l0.16599-1.3705c0.15748-0.29794 0.36178-0.45117 0.60865-0.45117 0.0724 0 0.13194 9e-3 0.17025 0.0213 0.0383 0.0128 0.0766 0.0213 0.10215 0.0213 0.0255 0 0.0468-0.0213 0.0596-0.0553l0.0851-0.28517c-0.0809-0.0511-0.17451-0.0724-0.28517-0.0724-0.28091 0-0.51926 0.15748-0.71505 0.4767l0.0128-0.33624c0-0.0766-0.0213-0.10215-0.10215-0.10215z" style="font-feature-settings:normal;font-variant-caps:normal;font-variant-ligatures:normal;font-variant-numeric:normal"/>
       <path d="m113.28 115.33c-0.0128-0.034-0.0298-0.0639-0.0511-0.0894s-0.0468-0.0426-0.0766-0.0553c-0.0298-0.0128-0.0639-0.0213-0.10215-0.0213-0.0383 0-0.0724 9e-3 -0.10641 0.0213-0.034 0.0128-0.0638 0.0298-0.0936 0.0553s-0.0511 0.0553-0.0681 0.0894-0.0298 0.0681-0.0341 0.1064c-4e-3 0.0383 0 0.0724 9e-3 0.10215 9e-3 0.0298 0.0255 0.0596 0.0468 0.0851s0.0511 0.0468 0.0809 0.0596 0.0596 0.0213 0.0979 0.0213 0.0724-9e-3 0.1064-0.0213c0.034-0.0128 0.0639-0.034 0.0936-0.0596 0.0298-0.0255 0.0553-0.0511 0.0724-0.0851 0.017-0.0341 0.0298-0.0638 0.034-0.10215 4e-3 -0.0383 4e-3 -0.0724-9e-3 -0.1064zm-0.14897 2.6729-0.23835-0.0468 0.22983-1.843h-0.68951l-0.0213 0.18302c-4e-3 0.0383 0.017 0.0681 0.0553 0.0766l0.23835 0.0468-0.19153 1.5365-0.0383 0.3107h0.68952l0.0213-0.18302c4e-3 -0.0383-0.017-0.0724-0.0553-0.0809z" style="font-feature-settings:normal;font-variant-caps:normal;font-variant-ligatures:normal;font-variant-numeric:normal"/>
       <path d="m114.96 116.08c-0.26389 0-0.47245 0.0596-0.62993 0.18727-0.14897 0.11492-0.22984 0.25963-0.25112 0.43414-0.0213 0.16599 0.017 0.30219 0.12343 0.40009 0.0468 0.0426 0.11067 0.0809 0.18302 0.11492 0.0724 0.0341 0.20005 0.0766 0.37881 0.1362 0.0638 0.0213 0.11918 0.0468 0.17025 0.0724 0.0511 0.0255 0.0894 0.0639 0.11492 0.10215 0.0255 0.0383 0.0341 0.0979 0.0255 0.17877-9e-3 0.0809-0.0553 0.15322-0.1362 0.21707-0.0894 0.0724-0.2043 0.1064-0.34476 0.1064-0.17025 0-0.31071-0.0298-0.42563-0.0851 9e-3 -0.17025 9e-3 -0.25963 9e-3 -0.2724-4e-3 -0.0341-0.0255-0.0511-0.0596-0.0511h-0.14897l-0.0681 0.56183c0.22133 0.0809 0.44691 0.11492 0.681 0.11492 0.2341 0 0.42988-0.0639 0.59162-0.19579 0.15748-0.12343 0.24686-0.28943 0.2724-0.49373 0.0213-0.15748-0.0213-0.28517-0.12769-0.3788-0.0468-0.0426-0.10215-0.0766-0.16599-0.10641-0.0638-0.0298-0.12769-0.0511-0.19579-0.0766-0.0681-0.0213-0.15322-0.0511-0.25537-0.0851s-0.17877-0.0809-0.22559-0.14897c-0.0298-0.0383-0.0383-0.0936-0.0298-0.16599 9e-3 -0.0724 0.0553-0.1362 0.1362-0.19579 0.0809-0.0596 0.18728-0.0894 0.30645-0.0894h4e-3c0.0936 0 0.20004 0.0128 0.32347 0.0426-9e-3 0.17876-9e-3 0.27666-9e-3 0.28092 4e-3 0.0383 0.0255 0.0596 0.0681 0.0596h0.16599l0.0511-0.40434 0.017-0.14897c-0.21706-0.0766-0.40008-0.11066-0.54905-0.11066z" style="font-feature-settings:normal;font-variant-caps:normal;font-variant-ligatures:normal;font-variant-numeric:normal"/>
       <path d="m117.82 117.87-0.0936-0.11491c-0.0213-0.0255-0.0468-0.0341-0.0724-0.0341-0.0213 0-0.0468 9e-3 -0.0681 0.0213-0.0553 0.034-0.10641 0.0766-0.16174 0.11917-0.10641 0.0809-0.24686 0.14046-0.43414 0.14046-0.34901 0-0.49798-0.22133-0.49798-0.58311v-0.0936c0.28091-0.0298 0.51075-0.0638 0.68951-0.11066 0.17876-0.0468 0.31922-0.10215 0.42137-0.16599 0.17025-0.10215 0.26814-0.2341 0.26814-0.47245 0-0.0511-0.0128-0.1064-0.0383-0.16599-0.0851-0.20005-0.29794-0.32348-0.59162-0.32348-0.38732 0-0.64695 0.19153-0.8172 0.41712-0.17025 0.22558-0.3022 0.53628-0.3022 0.9236 0 0.13195 0.017 0.25538 0.0553 0.36179 0.10215 0.30219 0.33624 0.51075 0.73633 0.51075 0.43839 0 0.68525-0.20005 0.90658-0.42989zm-0.28943-1.2769c0 0.14471-0.0638 0.21281-0.1745 0.27665-0.0724 0.0383-0.17025 0.0766-0.3022 0.11067-0.13194 0.034-0.3107 0.0681-0.52777 0.0936 0.0213-0.10215 0.0553-0.19578 0.0979-0.28091 0.10215-0.22132 0.28517-0.43414 0.59588-0.43414 0.16599 0 0.3107 0.0766 0.3107 0.2341z" style="font-feature-settings:normal;font-variant-caps:normal;font-variant-ligatures:normal;font-variant-numeric:normal"/>
      </g>
     </g>
    </g>
   </g>
  </g>
 </g>
</svg>
