<?xml version="1.0" encoding="UTF-8"?>
<!-- Created with Inkscape (http://www.inkscape.org/) -->
<svg width="512" height="512" version="1.1" viewBox="0 0 135.47 135.47" xmlns="http://www.w3.org/2000/svg" xmlns:cc="http://creativecommons.org/ns#" xmlns:dc="http://purl.org/dc/elements/1.1/" xmlns:rdf="http://www.w3.org/1999/02/22-rdf-syntax-ns#">
 <metadata>
  <rdf:RDF>
   <cc:Work rdf:about="">
    <dc:format>image/svg+xml</dc:format>
    <dc:type rdf:resource="http://purl.org/dc/dcmitype/StillImage"/>
    <dc:title/>
   </cc:Work>
  </rdf:RDF>
 </metadata>
 <g transform="translate(-40.653 -67.574)">
  <g transform="matrix(.99805 0 0 .99805 .079244 .39578)">
   <rect x="40.785" y="67.442" width="135.47" height="135.47" opacity="0" stroke-width=".26458"/>
   <path d="m114.06 67.443c-1.5566-0.03723-2.8132 1.5152-2.7359 3.3793v71.789c-0.92714 0.0512-1.8351 0.13241-2.802 0.13241-0.96414 0-1.8652-0.0814-2.79-0.13241v-71.789c0-4.2962-5.3756-4.2962-5.3756 0v71.212c-2.1282-0.37642-3.9864-0.90178-5.592-1.5273v-69.684c-0.0014-1.815-1.2527-3.2702-2.766-3.217-1.4523 0.05003-2.6082 1.4752-2.6096 3.217v76.587c-4.07e-4 0.0279 0.0128 0.0512 0.0128 0.078 0.05702 5.2644 6.2918 9.6408 14.648 10.823v31.141l-5.9829 8.0995c-1.5405 2.0822-0.30113 5.3684 2.0203 5.3575h16.884c2.3159-2e-3 3.545-3.2805 2.0083-5.3575l-5.9829-8.0995v-31.141c8.3557-1.1826 14.591-5.559 14.648-10.823 1.8e-4 -0.0279 0.0128-0.05 0.0128-0.078v-76.587c-9.9e-4 -1.815-1.2527-3.2702-2.766-3.217-1.4523 0.05003-2.6082 1.4752-2.6096 3.217v69.684c-1.607 0.62648-3.4618 1.1507-5.5921 1.5273v-71.212c0.0756-1.813-1.1138-3.3421-2.6277-3.3793zm-56.6 10.066c-0.60553 0.01862-1.1883 0.28077-1.6536 0.74562-9.3404 9.0464-14.179 21.16-14.179 33.33 0 12.17 4.8381 24.277 14.179 33.324 2.7888 2.6959 6.1621-2.3189 3.3733-5.0148-8.2363-7.9771-12.176-18.167-12.176-28.309 0-10.142 3.9399-20.338 12.176-28.315 2.0451-1.9092 0.87152-5.8403-1.7197-5.7604zm102.11 0c-2.5849-0.06516-3.7473 3.8556-1.7077 5.7604 8.2364 7.9771 12.182 18.173 12.182 28.315 0 10.142-3.9459 20.332-12.182 28.309-2.7888 2.7008 0.59051 7.7156 3.3793 5.0148 9.3404-9.0464 14.173-21.154 14.173-33.324 0-12.17-4.8321-24.283-14.173-33.33-0.46694-0.46648-1.052-0.72933-1.6596-0.74562zm-91.698 10.096c-0.60401 0.0221-1.1845 0.28601-1.6475 0.75167-6.4639 6.2578-9.8673 14.713-9.8673 23.228 0 8.5154 3.4034 16.964 9.8673 23.222 2.7854 2.7007 6.1647-2.308 3.3793-5.0088-5.3597-5.1888-7.871-11.726-7.871-18.213 0-6.4872 2.5113-13.031 7.871-18.219 2.0506-1.9136 0.8657-5.8549-1.7317-5.7604zm81.277 0c-2.5849-0.06516-3.7472 3.8555-1.7077 5.7604 5.3597 5.1888 7.871 11.732 7.871 18.219 0 6.4871-2.5113 13.024-7.871 18.213-2.9586 2.672 0.57086 7.9128 3.3733 5.0088 6.4639-6.2578 9.8733-14.707 9.8733-23.222 0-8.5155-3.4094-16.97-9.8733-23.228-0.46298-0.46555-1.0435-0.73038-1.6476-0.75167-6e-3 -3.4e-5 -0.0128-3.4e-5 -0.0186 0zm-71.542 9.4283c-0.60436 0.01513-1.1869 0.27309-1.6536 0.73364-3.7768 3.6563-5.8386 8.712-5.8386 13.818 0 5.1058 2.0618 10.156 5.8386 13.812 2.7888 2.6959 6.162-2.3189 3.3733-5.0148-2.6727-2.5874-3.8363-5.7196-3.8363-8.797-3.4e-5 -3.0774 1.1636-6.2156 3.8363-8.803 2.0231-1.9132 0.85651-5.8126-1.7197-5.7484zm61.825 0c-2.5763-0.064-3.7428 3.8352-1.7197 5.7484 2.6727 2.5874 3.8363 5.7255 3.8362 8.803 0 3.0774-1.1636 6.2096-3.8362 8.797-2.7888 2.7007 0.59051 7.7156 3.3793 5.0148 3.7768-3.6562 5.8326-8.706 5.8326-13.812 0-5.1058-2.0558-10.162-5.8326-13.818-0.46821-0.46206-1.0532-0.72061-1.6596-0.73364z" color="#000000" color-rendering="auto" dominant-baseline="auto" fill="#f3f6fa" fill-rule="evenodd" image-rendering="auto" shape-rendering="auto" solid-color="#000000" style="font-feature-settings:normal;font-variant-alternates:normal;font-variant-caps:normal;font-variant-ligatures:normal;font-variant-numeric:normal;font-variant-position:normal;isolation:auto;mix-blend-mode:normal;shape-padding:0;text-decoration-color:#000000;text-decoration-line:none;text-decoration-style:solid;text-indent:0;text-orientation:mixed;text-transform:none;white-space:normal"/>
  </g>
 </g>
</svg>
